999
Exported by CATT-Acoustic v9.1e Copyright © CATT 1988-2019
999
PROJECT= SINS
  0
SECTION
  2
ENTITIES
  0
3DFACE
  8
CATTEXP
 10
   4.110000
 20
   4.940000
 30
   1.580000
 11
   7.180000
 21
   4.940000
 31
   1.870000
 12
   7.180000
 22
   4.940000
 32
   0.900000
 13
   7.180000
 23
   4.940000
 33
   0.900000
 62
  3
  0
3DFACE
  8
CATTEXP
 10
   0.310000
 20
   4.940000
 30
   1.870000
 11
   7.180000
 21
   4.940000
 31
   1.870000
 12
   4.110000
 22
   4.940000
 32
   1.580000
 13
   4.110000
 23
   4.940000
 33
   1.580000
 62
  3
  0
3DFACE
  8
CATTEXP
 10
   3.590000
 20
   4.940000
 30
   1.580000
 11
   0.310000
 21
   4.940000
 31
   1.870000
 12
   4.110000
 22
   4.940000
 32
   1.580000
 13
   4.110000
 23
   4.940000
 33
   1.580000
 62
  3
  0
3DFACE
  8
CATTEXP
 10
   0.310000
 20
   4.940000
 30
   0.000000
 11
   0.310000
 21
   4.940000
 31
   1.870000
 12
   3.590000
 22
   4.940000
 32
   1.580000
 13
   3.590000
 23
   4.940000
 33
   1.580000
 62
  3
  0
3DFACE
  8
CATTEXP
 10
   3.590000
 20
   4.940000
 30
   0.000000
 11
   0.310000
 21
   4.940000
 31
   0.000000
 12
   3.590000
 22
   4.940000
 32
   1.580000
 13
   3.590000
 23
   4.940000
 33
   1.580000
 62
  3
  0
3DFACE
  8
CATTEXP
 10
   4.530000
 20
   4.940000
 30
   0.900000
 11
   4.110000
 21
   4.940000
 31
   1.580000
 12
   7.180000
 22
   4.940000
 32
   0.900000
 13
   7.180000
 23
   4.940000
 33
   0.900000
 62
  3
  0
3DFACE
  8
CATTEXP
 10
   4.110000
 20
   4.940000
 30
   0.000000
 11
   4.110000
 21
   4.940000
 31
   1.580000
 12
   4.530000
 22
   4.940000
 32
   0.900000
 13
   4.530000
 23
   4.940000
 33
   0.900000
 62
  3
  0
3DFACE
  8
CATTEXP
 10
   4.530000
 20
   4.940000
 30
   0.000000
 11
   4.110000
 21
   4.940000
 31
   0.000000
 12
   4.530000
 22
   4.940000
 32
   0.900000
 13
   4.530000
 23
   4.940000
 33
   0.900000
 62
  3
  0
3DFACE
  8
CATTEXP
 10
   1.400000
 20
   4.940000
 30
   1.060000
 11
   1.400000
 21
   4.940000
 31
   1.560000
 12
   2.400000
 22
   4.940000
 32
   1.560000
 13
   2.400000
 23
   4.940000
 33
   1.060000
 62
  3
  0
3DFACE
  8
CATTEXP
 10
   4.110000
 20
   4.940000
 30
   1.580000
 11
   7.180000
 21
   4.940000
 31
   1.870000
 12
   7.180000
 22
   4.940000
 32
   0.900000
 13
   7.180000
 23
   4.940000
 33
   0.900000
 62
 40
  0
3DFACE
  8
CATTEXP
 10
   0.310000
 20
   4.940000
 30
   1.870000
 11
   7.180000
 21
   4.940000
 31
   1.870000
 12
   4.110000
 22
   4.940000
 32
   1.580000
 13
   4.110000
 23
   4.940000
 33
   1.580000
 62
 40
  0
3DFACE
  8
CATTEXP
 10
   3.590000
 20
   4.940000
 30
   1.580000
 11
   0.310000
 21
   4.940000
 31
   1.870000
 12
   4.110000
 22
   4.940000
 32
   1.580000
 13
   4.110000
 23
   4.940000
 33
   1.580000
 62
 40
  0
3DFACE
  8
CATTEXP
 10
   0.310000
 20
   4.940000
 30
   0.000000
 11
   0.310000
 21
   4.940000
 31
   1.870000
 12
   3.590000
 22
   4.940000
 32
   1.580000
 13
   3.590000
 23
   4.940000
 33
   1.580000
 62
 40
  0
3DFACE
  8
CATTEXP
 10
   3.590000
 20
   4.940000
 30
   0.000000
 11
   0.310000
 21
   4.940000
 31
   0.000000
 12
   3.590000
 22
   4.940000
 32
   1.580000
 13
   3.590000
 23
   4.940000
 33
   1.580000
 62
 40
  0
3DFACE
  8
CATTEXP
 10
   4.530000
 20
   4.940000
 30
   0.900000
 11
   4.110000
 21
   4.940000
 31
   1.580000
 12
   7.180000
 22
   4.940000
 32
   0.900000
 13
   7.180000
 23
   4.940000
 33
   0.900000
 62
 40
  0
3DFACE
  8
CATTEXP
 10
   4.110000
 20
   4.940000
 30
   0.000000
 11
   4.110000
 21
   4.940000
 31
   1.580000
 12
   4.530000
 22
   4.940000
 32
   0.900000
 13
   4.530000
 23
   4.940000
 33
   0.900000
 62
 40
  0
3DFACE
  8
CATTEXP
 10
   4.530000
 20
   4.940000
 30
   0.000000
 11
   4.110000
 21
   4.940000
 31
   0.000000
 12
   4.530000
 22
   4.940000
 32
   0.900000
 13
   4.530000
 23
   4.940000
 33
   0.900000
 62
 40
  0
3DFACE
  8
CATTEXP
 10
   3.200000
 20
   5.100000
 30
   1.870000
 11
   1.120000
 21
   5.100000
 31
   1.800000
 12
   1.120000
 22
   5.100000
 32
   0.000000
 13
   1.120000
 23
   5.100000
 33
   0.000000
 62
 40
  0
3DFACE
  8
CATTEXP
 10
   0.310000
 20
   5.100000
 30
   1.800000
 11
   1.120000
 21
   5.100000
 31
   1.800000
 12
   3.200000
 22
   5.100000
 32
   1.870000
 13
   3.200000
 23
   5.100000
 33
   1.870000
 62
 40
  0
3DFACE
  8
CATTEXP
 10
   0.310000
 20
   5.100000
 30
   1.870000
 11
   0.310000
 21
   5.100000
 31
   1.800000
 12
   3.200000
 22
   5.100000
 32
   1.870000
 13
   3.200000
 23
   5.100000
 33
   1.870000
 62
 40
  0
3DFACE
  8
CATTEXP
 10
   3.200000
 20
   5.100000
 30
   0.000000
 11
   3.200000
 21
   5.100000
 31
   1.870000
 12
   1.120000
 22
   5.100000
 32
   0.000000
 13
   1.120000
 23
   5.100000
 33
   0.000000
 62
 40
  0
3DFACE
  8
CATTEXP
 10
   1.460000
 20
   1.810000
 30
   0.350000
 11
   0.770000
 21
   1.810000
 31
   0.350000
 12
   0.770000
 22
   4.590000
 32
   0.350000
 13
   0.770000
 23
   4.590000
 33
   0.350000
 62
  5
  0
3DFACE
  8
CATTEXP
 10
   1.460000
 20
   3.880000
 30
   0.350000
 11
   1.460000
 21
   1.810000
 31
   0.350000
 12
   0.770000
 22
   4.590000
 32
   0.350000
 13
   0.770000
 23
   4.590000
 33
   0.350000
 62
  5
  0
3DFACE
  8
CATTEXP
 10
   2.560000
 20
   3.880000
 30
   0.350000
 11
   1.460000
 21
   3.880000
 31
   0.350000
 12
   0.770000
 22
   4.590000
 32
   0.350000
 13
   0.770000
 23
   4.590000
 33
   0.350000
 62
  5
  0
3DFACE
  8
CATTEXP
 10
   2.560000
 20
   4.590000
 30
   0.350000
 11
   2.560000
 21
   3.880000
 31
   0.350000
 12
   0.770000
 22
   4.590000
 32
   0.350000
 13
   0.770000
 23
   4.590000
 33
   0.350000
 62
  5
  0
3DFACE
  8
CATTEXP
 10
   2.760000
 20
   0.160000
 30
   1.870000
 11
   0.310000
 21
   0.160000
 31
   1.870000
 12
   0.310000
 22
   0.160000
 32
   0.000000
 13
   0.310000
 23
   0.160000
 33
   0.000000
 62
253
  0
3DFACE
  8
CATTEXP
 10
   2.760000
 20
   0.160000
 30
   0.000000
 11
   2.760000
 21
   0.160000
 31
   1.870000
 12
   0.310000
 22
   0.160000
 32
   0.000000
 13
   0.310000
 23
   0.160000
 33
   0.000000
 62
253
  0
3DFACE
  8
CATTEXP
 10
   0.660000
 20
   0.160000
 30
   1.500000
 11
   0.660000
 21
   0.160000
 31
   0.500000
 12
   2.430000
 22
   0.160000
 32
   0.500000
 13
   2.430000
 23
   0.160000
 33
   1.500000
 62
253
  0
3DFACE
  8
CATTEXP
 10
   2.760000
 20
   0.160000
 30
   1.870000
 11
   0.310000
 21
   0.160000
 31
   1.870000
 12
   0.310000
 22
   0.160000
 32
   0.000000
 13
   0.310000
 23
   0.160000
 33
   0.000000
 62
 40
  0
3DFACE
  8
CATTEXP
 10
   2.760000
 20
   0.160000
 30
   0.000000
 11
   2.760000
 21
   0.160000
 31
   1.870000
 12
   0.310000
 22
   0.160000
 32
   0.000000
 13
   0.310000
 23
   0.160000
 33
   0.000000
 62
 40
  0
3DFACE
  8
CATTEXP
 10
   5.350000
 20
   6.350000
 30
   1.570000
 11
   5.350000
 21
   7.350000
 31
   1.870000
 12
   5.350000
 22
   5.100000
 32
   1.870000
 13
   5.350000
 23
   5.100000
 33
   1.870000
 62
 40
  0
3DFACE
  8
CATTEXP
 10
   5.350000
 20
   7.350000
 30
   0.000000
 11
   5.350000
 21
   7.350000
 31
   1.870000
 12
   5.350000
 22
   6.350000
 32
   1.570000
 13
   5.350000
 23
   6.350000
 33
   1.570000
 62
 40
  0
3DFACE
  8
CATTEXP
 10
   5.350000
 20
   6.350000
 30
   0.000000
 11
   5.350000
 21
   7.350000
 31
   0.000000
 12
   5.350000
 22
   6.350000
 32
   1.570000
 13
   5.350000
 23
   6.350000
 33
   1.570000
 62
 40
  0
3DFACE
  8
CATTEXP
 10
   5.350000
 20
   5.840000
 30
   1.570000
 11
   5.350000
 21
   6.350000
 31
   1.570000
 12
   5.350000
 22
   5.100000
 32
   1.870000
 13
   5.350000
 23
   5.100000
 33
   1.870000
 62
 40
  0
3DFACE
  8
CATTEXP
 10
   5.350000
 20
   5.840000
 30
   0.000000
 11
   5.350000
 21
   5.840000
 31
   1.570000
 12
   5.350000
 22
   5.100000
 32
   1.870000
 13
   5.350000
 23
   5.100000
 33
   1.870000
 62
 40
  0
3DFACE
  8
CATTEXP
 10
   5.350000
 20
   5.100000
 30
   0.000000
 11
   5.350000
 21
   5.840000
 31
   0.000000
 12
   5.350000
 22
   5.100000
 32
   1.870000
 13
   5.350000
 23
   5.100000
 33
   1.870000
 62
 40
  0
3DFACE
  8
CATTEXP
 10
   3.200000
 20
   5.100000
 30
   1.870000
 11
   3.200000
 21
   5.100000
 31
   0.000000
 12
   3.200000
 22
   5.230000
 32
   0.000000
 13
   3.200000
 23
   5.230000
 33
   0.000000
 62
 40
  0
3DFACE
  8
CATTEXP
 10
   3.200000
 20
   5.230000
 30
   1.570000
 11
   3.200000
 21
   5.100000
 31
   1.870000
 12
   3.200000
 22
   5.230000
 32
   0.000000
 13
   3.200000
 23
   5.230000
 33
   0.000000
 62
 40
  0
3DFACE
  8
CATTEXP
 10
   3.200000
 20
   7.350000
 30
   1.870000
 11
   3.200000
 21
   5.100000
 31
   1.870000
 12
   3.200000
 22
   5.230000
 32
   1.570000
 13
   3.200000
 23
   5.230000
 33
   1.570000
 62
 40
  0
3DFACE
  8
CATTEXP
 10
   3.200000
 20
   5.730000
 30
   1.570000
 11
   3.200000
 21
   7.350000
 31
   1.870000
 12
   3.200000
 22
   5.230000
 32
   1.570000
 13
   3.200000
 23
   5.230000
 33
   1.570000
 62
 40
  0
3DFACE
  8
CATTEXP
 10
   3.200000
 20
   7.350000
 30
   0.000000
 11
   3.200000
 21
   7.350000
 31
   1.870000
 12
   3.200000
 22
   5.730000
 32
   1.570000
 13
   3.200000
 23
   5.730000
 33
   1.570000
 62
 40
  0
3DFACE
  8
CATTEXP
 10
   3.200000
 20
   5.730000
 30
   0.000000
 11
   3.200000
 21
   7.350000
 31
   0.000000
 12
   3.200000
 22
   5.730000
 32
   1.570000
 13
   3.200000
 23
   5.730000
 33
   1.570000
 62
 40
  0
3DFACE
  8
CATTEXP
 10
   5.510000
 20
   5.630000
 30
   0.830000
 11
   5.510000
 21
   5.840000
 31
   1.570000
 12
   5.510000
 22
   5.840000
 32
   0.000000
 13
   5.510000
 23
   5.840000
 33
   0.000000
 62
254
  0
3DFACE
  8
CATTEXP
 10
   5.510000
 20
   5.100000
 30
   1.870000
 11
   5.510000
 21
   5.840000
 31
   1.570000
 12
   5.510000
 22
   5.630000
 32
   0.830000
 13
   5.510000
 23
   5.630000
 33
   0.830000
 62
254
  0
3DFACE
  8
CATTEXP
 10
   5.510000
 20
   6.350000
 30
   1.570000
 11
   5.510000
 21
   5.840000
 31
   1.570000
 12
   5.510000
 22
   5.100000
 32
   1.870000
 13
   5.510000
 23
   5.100000
 33
   1.870000
 62
254
  0
3DFACE
  8
CATTEXP
 10
   5.510000
 20
   7.350000
 30
   1.870000
 11
   5.510000
 21
   6.350000
 31
   1.570000
 12
   5.510000
 22
   5.100000
 32
   1.870000
 13
   5.510000
 23
   5.100000
 33
   1.870000
 62
254
  0
3DFACE
  8
CATTEXP
 10
   5.510000
 20
   6.350000
 30
   0.000000
 11
   5.510000
 21
   6.350000
 31
   1.570000
 12
   5.510000
 22
   7.350000
 32
   1.870000
 13
   5.510000
 23
   7.350000
 33
   1.870000
 62
254
  0
3DFACE
  8
CATTEXP
 10
   5.510000
 20
   7.350000
 30
   0.000000
 11
   5.510000
 21
   6.350000
 31
   0.000000
 12
   5.510000
 22
   7.350000
 32
   1.870000
 13
   5.510000
 23
   7.350000
 33
   1.870000
 62
254
  0
3DFACE
  8
CATTEXP
 10
   5.510000
 20
   5.100000
 30
   0.830000
 11
   5.510000
 21
   5.100000
 31
   1.870000
 12
   5.510000
 22
   5.630000
 32
   0.830000
 13
   5.510000
 23
   5.630000
 33
   0.830000
 62
254
  0
3DFACE
  8
CATTEXP
 10
   5.510000
 20
   5.630000
 30
   0.000000
 11
   5.510000
 21
   5.630000
 31
   0.830000
 12
   5.510000
 22
   5.840000
 32
   0.000000
 13
   5.510000
 23
   5.840000
 33
   0.000000
 62
254
  0
3DFACE
  8
CATTEXP
 10
   3.590000
 20
   5.100000
 30
   1.580000
 11
   3.350000
 21
   5.100000
 31
   1.870000
 12
   3.350000
 22
   5.100000
 32
   0.000000
 13
   3.350000
 23
   5.100000
 33
   0.000000
 62
 40
  0
3DFACE
  8
CATTEXP
 10
   5.350000
 20
   5.100000
 30
   1.870000
 11
   3.350000
 21
   5.100000
 31
   1.870000
 12
   3.590000
 22
   5.100000
 32
   1.580000
 13
   3.590000
 23
   5.100000
 33
   1.580000
 62
 40
  0
3DFACE
  8
CATTEXP
 10
   4.110000
 20
   5.100000
 30
   1.580000
 11
   5.350000
 21
   5.100000
 31
   1.870000
 12
   3.590000
 22
   5.100000
 32
   1.580000
 13
   3.590000
 23
   5.100000
 33
   1.580000
 62
 40
  0
3DFACE
  8
CATTEXP
 10
   5.350000
 20
   5.100000
 30
   0.000000
 11
   5.350000
 21
   5.100000
 31
   1.870000
 12
   4.110000
 22
   5.100000
 32
   1.580000
 13
   4.110000
 23
   5.100000
 33
   1.580000
 62
 40
  0
3DFACE
  8
CATTEXP
 10
   4.110000
 20
   5.100000
 30
   0.000000
 11
   5.350000
 21
   5.100000
 31
   0.000000
 12
   4.110000
 22
   5.100000
 32
   1.580000
 13
   4.110000
 23
   5.100000
 33
   1.580000
 62
 40
  0
3DFACE
  8
CATTEXP
 10
   3.590000
 20
   5.100000
 30
   0.000000
 11
   3.590000
 21
   5.100000
 31
   1.580000
 12
   3.350000
 22
   5.100000
 32
   0.000000
 13
   3.350000
 23
   5.100000
 33
   0.000000
 62
 40
  0
3DFACE
  8
CATTEXP
 10
   1.460000
 20
   1.590000
 30
   0.000000
 11
   0.640000
 21
   1.580000
 31
   0.000000
 12
   0.640000
 22
   1.580000
 32
   0.750000
 13
   0.640000
 23
   1.580000
 33
   0.750000
 62
  5
  0
3DFACE
  8
CATTEXP
 10
   1.460000
 20
   1.590000
 30
   0.550000
 11
   1.460000
 21
   1.590000
 31
   0.000000
 12
   0.640000
 22
   1.580000
 32
   0.750000
 13
   0.640000
 23
   1.580000
 33
   0.750000
 62
  5
  0
3DFACE
  8
CATTEXP
 10
   0.770000
 20
   1.580000
 30
   0.550000
 11
   1.460000
 21
   1.590000
 31
   0.550000
 12
   0.640000
 22
   1.580000
 32
   0.750000
 13
   0.640000
 23
   1.580000
 33
   0.750000
 62
  5
  0
3DFACE
  8
CATTEXP
 10
   0.770000
 20
   1.580000
 30
   0.750000
 11
   0.770000
 21
   1.580000
 31
   0.550000
 12
   0.640000
 22
   1.580000
 32
   0.750000
 13
   0.640000
 23
   1.580000
 33
   0.750000
 62
  5
  0
3DFACE
  8
CATTEXP
 10
   7.180000
 20
   1.810000
 30
   1.870000
 11
   5.430000
 21
   1.810000
 31
   1.870000
 12
   5.430000
 22
   1.810000
 32
   0.000000
 13
   5.430000
 23
   1.810000
 33
   0.000000
 62
 40
  0
3DFACE
  8
CATTEXP
 10
   7.180000
 20
   1.810000
 30
   0.000000
 11
   7.180000
 21
   1.810000
 31
   1.870000
 12
   5.430000
 22
   1.810000
 32
   0.000000
 13
   5.430000
 23
   1.810000
 33
   0.000000
 62
 40
  0
3DFACE
  8
CATTEXP
 10
   5.430000
 20
   1.810000
 30
   0.000000
 11
   5.430000
 21
   1.810000
 31
   1.870000
 12
   5.430000
 22
   0.150000
 32
   1.870000
 13
   5.430000
 23
   0.150000
 33
   1.870000
 62
 40
  0
3DFACE
  8
CATTEXP
 10
   5.430000
 20
   0.150000
 30
   0.000000
 11
   5.430000
 21
   1.810000
 31
   0.000000
 12
   5.430000
 22
   0.150000
 32
   1.870000
 13
   5.430000
 23
   0.150000
 33
   1.870000
 62
 40
  0
3DFACE
  8
CATTEXP
 10
   4.460000
 20
   7.350000
 30
   1.870000
 11
   4.460000
 21
   7.350000
 31
   0.000000
 12
   4.460000
 22
   5.870000
 32
   0.000000
 13
   4.460000
 23
   5.870000
 33
   0.000000
 62
 40
  0
3DFACE
  8
CATTEXP
 10
   4.460000
 20
   5.870000
 30
   1.870000
 11
   4.460000
 21
   7.350000
 31
   1.870000
 12
   4.460000
 22
   5.870000
 32
   0.000000
 13
   4.460000
 23
   5.870000
 33
   0.000000
 62
 40
  0
3DFACE
  8
CATTEXP
 10
   2.650000
 20
   5.930000
 30
   0.300000
 11
   0.840000
 21
   5.930000
 31
   0.300000
 12
   0.840000
 22
   7.350000
 32
   0.300000
 13
   2.650000
 23
   7.350000
 33
   0.300000
 62
252
  0
3DFACE
  8
CATTEXP
 10
   4.290000
 20
   7.350000
 30
   0.000000
 11
   4.290000
 21
   7.350000
 31
   1.870000
 12
   4.290000
 22
   6.050000
 32
   1.870000
 13
   4.290000
 23
   6.050000
 33
   0.000000
 62
254
  0
3DFACE
  8
CATTEXP
 10
   3.350000
 20
   6.050000
 30
   1.870000
 11
   3.350000
 21
   7.350000
 31
   1.870000
 12
   3.350000
 22
   7.350000
 32
   0.000000
 13
   3.350000
 23
   6.050000
 33
   0.000000
 62
254
  0
3DFACE
  8
CATTEXP
 10
   0.640000
 20
   1.580000
 30
   0.000000
 11
   0.640000
 21
   4.800000
 31
   0.000000
 12
   0.640000
 22
   4.800000
 32
   0.750000
 13
   0.640000
 23
   1.580000
 33
   0.750000
 62
  5
  0
3DFACE
  8
CATTEXP
 10
   7.180000
 20
   4.340000
 30
   0.000000
 11
   4.530000
 21
   4.340000
 31
   0.000000
 12
   4.530000
 22
   4.340000
 32
   0.900000
 13
   4.530000
 23
   4.340000
 33
   0.900000
 62
151
  0
3DFACE
  8
CATTEXP
 10
   7.180000
 20
   4.340000
 30
   0.900000
 11
   7.180000
 21
   4.340000
 31
   0.000000
 12
   4.530000
 22
   4.340000
 32
   0.900000
 13
   4.530000
 23
   4.340000
 33
   0.900000
 62
151
  0
3DFACE
  8
CATTEXP
 10
   3.350000
 20
   5.870000
 30
   1.870000
 11
   3.590000
 21
   5.870000
 31
   1.570000
 12
   3.590000
 22
   5.870000
 32
   0.000000
 13
   3.590000
 23
   5.870000
 33
   0.000000
 62
 40
  0
3DFACE
  8
CATTEXP
 10
   4.090000
 20
   5.870000
 30
   1.570000
 11
   3.590000
 21
   5.870000
 31
   1.570000
 12
   3.350000
 22
   5.870000
 32
   1.870000
 13
   3.350000
 23
   5.870000
 33
   1.870000
 62
 40
  0
3DFACE
  8
CATTEXP
 10
   4.460000
 20
   5.870000
 30
   1.870000
 11
   4.090000
 21
   5.870000
 31
   1.570000
 12
   3.350000
 22
   5.870000
 32
   1.870000
 13
   3.350000
 23
   5.870000
 33
   1.870000
 62
 40
  0
3DFACE
  8
CATTEXP
 10
   4.090000
 20
   5.870000
 30
   0.000000
 11
   4.090000
 21
   5.870000
 31
   1.570000
 12
   4.460000
 22
   5.870000
 32
   1.870000
 13
   4.460000
 23
   5.870000
 33
   1.870000
 62
 40
  0
3DFACE
  8
CATTEXP
 10
   4.460000
 20
   5.870000
 30
   0.000000
 11
   4.090000
 21
   5.870000
 31
   0.000000
 12
   4.460000
 22
   5.870000
 32
   1.870000
 13
   4.460000
 23
   5.870000
 33
   1.870000
 62
 40
  0
3DFACE
  8
CATTEXP
 10
   3.350000
 20
   5.870000
 30
   0.000000
 11
   3.350000
 21
   5.870000
 31
   1.870000
 12
   3.590000
 22
   5.870000
 32
   0.000000
 13
   3.590000
 23
   5.870000
 33
   0.000000
 62
 40
  0
3DFACE
  8
CATTEXP
 10
   3.820000
 20
   0.950000
 30
   0.000000
 11
   3.820000
 21
   0.950000
 31
   1.870000
 12
   2.760000
 22
   0.950000
 32
   1.870000
 13
   2.760000
 23
   0.950000
 33
   1.870000
 62
 40
  0
3DFACE
  8
CATTEXP
 10
   2.760000
 20
   0.950000
 30
   0.000000
 11
   3.820000
 21
   0.950000
 31
   0.000000
 12
   2.760000
 22
   0.950000
 32
   1.870000
 13
   2.760000
 23
   0.950000
 33
   1.870000
 62
 40
  0
3DFACE
  8
CATTEXP
 10
   4.290000
 20
   6.050000
 30
   1.870000
 11
   4.090000
 21
   6.050000
 31
   1.570000
 12
   4.090000
 22
   6.050000
 32
   0.000000
 13
   4.090000
 23
   6.050000
 33
   0.000000
 62
254
  0
3DFACE
  8
CATTEXP
 10
   3.590000
 20
   6.050000
 30
   1.570000
 11
   4.090000
 21
   6.050000
 31
   1.570000
 12
   4.290000
 22
   6.050000
 32
   1.870000
 13
   4.290000
 23
   6.050000
 33
   1.870000
 62
254
  0
3DFACE
  8
CATTEXP
 10
   3.350000
 20
   6.050000
 30
   1.870000
 11
   3.590000
 21
   6.050000
 31
   1.570000
 12
   4.290000
 22
   6.050000
 32
   1.870000
 13
   4.290000
 23
   6.050000
 33
   1.870000
 62
254
  0
3DFACE
  8
CATTEXP
 10
   3.590000
 20
   6.050000
 30
   0.000000
 11
   3.590000
 21
   6.050000
 31
   1.570000
 12
   3.350000
 22
   6.050000
 32
   1.870000
 13
   3.350000
 23
   6.050000
 33
   1.870000
 62
254
  0
3DFACE
  8
CATTEXP
 10
   3.350000
 20
   6.050000
 30
   0.000000
 11
   3.590000
 21
   6.050000
 31
   0.000000
 12
   3.350000
 22
   6.050000
 32
   1.870000
 13
   3.350000
 23
   6.050000
 33
   1.870000
 62
254
  0
3DFACE
  8
CATTEXP
 10
   4.290000
 20
   6.050000
 30
   0.000000
 11
   4.290000
 21
   6.050000
 31
   1.870000
 12
   4.090000
 22
   6.050000
 32
   0.000000
 13
   4.090000
 23
   6.050000
 33
   0.000000
 62
254
  0
3DFACE
  8
CATTEXP
 10
   7.180000
 20
   5.100000
 30
   0.830000
 11
   7.180000
 21
   5.100000
 31
   1.870000
 12
   5.510000
 22
   5.100000
 32
   1.870000
 13
   5.510000
 23
   5.100000
 33
   1.870000
 62
254
  0
3DFACE
  8
CATTEXP
 10
   5.510000
 20
   5.100000
 30
   0.830000
 11
   7.180000
 21
   5.100000
 31
   0.830000
 12
   5.510000
 22
   5.100000
 32
   1.870000
 13
   5.510000
 23
   5.100000
 33
   1.870000
 62
254
  0
3DFACE
  8
CATTEXP
 10
   3.820000
 20
   0.950000
 30
   1.870000
 11
   3.820000
 21
   0.950000
 31
   0.000000
 12
   3.820000
 22
   0.150000
 32
   0.000000
 13
   3.820000
 23
   0.150000
 33
   0.000000
 62
 40
  0
3DFACE
  8
CATTEXP
 10
   3.820000
 20
   0.150000
 30
   1.870000
 11
   3.820000
 21
   0.950000
 31
   1.870000
 12
   3.820000
 22
   0.150000
 32
   0.000000
 13
   3.820000
 23
   0.150000
 33
   0.000000
 62
 40
  0
3DFACE
  8
CATTEXP
 10
   2.760000
 20
   0.950000
 30
   0.000000
 11
   2.760000
 21
   0.950000
 31
   1.870000
 12
   2.760000
 22
   0.160000
 32
   1.870000
 13
   2.760000
 23
   0.160000
 33
   1.870000
 62
 40
  0
3DFACE
  8
CATTEXP
 10
   2.760000
 20
   0.160000
 30
   0.000000
 11
   2.760000
 21
   0.950000
 31
   0.000000
 12
   2.760000
 22
   0.160000
 32
   1.870000
 13
   2.760000
 23
   0.160000
 33
   1.870000
 62
 40
  0
3DFACE
  8
CATTEXP
 10
   0.520000
 20
   0.990000
 30
   0.750000
 11
   0.520000
 21
   0.270000
 31
   0.750000
 12
   2.560000
 22
   0.270000
 32
   0.750000
 13
   2.560000
 23
   0.990000
 33
   0.750000
 62
151
  0
3DFACE
  8
CATTEXP
 10
   2.560000
 20
   0.990000
 30
   0.750000
 11
   2.560000
 21
   0.270000
 31
   0.750000
 12
   0.520000
 22
   0.270000
 32
   0.750000
 13
   0.520000
 23
   0.990000
 33
   0.750000
 62
151
  0
3DFACE
  8
CATTEXP
 10
   1.120000
 20
   5.530000
 30
   1.800000
 11
   0.310000
 21
   5.530000
 31
   1.800000
 12
   0.310000
 22
   5.530000
 32
   0.000000
 13
   1.120000
 23
   5.530000
 33
   0.000000
 62
151
  0
3DFACE
  8
CATTEXP
 10
   3.350000
 20
   5.100000
 30
   1.870000
 11
   3.350000
 21
   5.230000
 31
   1.570000
 12
   3.350000
 22
   5.230000
 32
   0.000000
 13
   3.350000
 23
   5.230000
 33
   0.000000
 62
 40
  0
3DFACE
  8
CATTEXP
 10
   3.350000
 20
   5.730000
 30
   1.570000
 11
   3.350000
 21
   5.230000
 31
   1.570000
 12
   3.350000
 22
   5.100000
 32
   1.870000
 13
   3.350000
 23
   5.100000
 33
   1.870000
 62
 40
  0
3DFACE
  8
CATTEXP
 10
   3.350000
 20
   5.870000
 30
   1.870000
 11
   3.350000
 21
   5.730000
 31
   1.570000
 12
   3.350000
 22
   5.100000
 32
   1.870000
 13
   3.350000
 23
   5.100000
 33
   1.870000
 62
 40
  0
3DFACE
  8
CATTEXP
 10
   3.350000
 20
   5.730000
 30
   0.000000
 11
   3.350000
 21
   5.730000
 31
   1.570000
 12
   3.350000
 22
   5.870000
 32
   1.870000
 13
   3.350000
 23
   5.870000
 33
   1.870000
 62
 40
  0
3DFACE
  8
CATTEXP
 10
   3.350000
 20
   5.870000
 30
   0.000000
 11
   3.350000
 21
   5.730000
 31
   0.000000
 12
   3.350000
 22
   5.870000
 32
   1.870000
 13
   3.350000
 23
   5.870000
 33
   1.870000
 62
 40
  0
3DFACE
  8
CATTEXP
 10
   3.350000
 20
   5.100000
 30
   0.000000
 11
   3.350000
 21
   5.100000
 31
   1.870000
 12
   3.350000
 22
   5.230000
 32
   0.000000
 13
   3.350000
 23
   5.230000
 33
   0.000000
 62
 40
  0
3DFACE
  8
CATTEXP
 10
   7.180000
 20
   5.630000
 30
   0.000000
 11
   7.180000
 21
   5.630000
 31
   0.830000
 12
   5.510000
 22
   5.630000
 32
   0.830000
 13
   5.510000
 23
   5.630000
 33
   0.830000
 62
151
  0
3DFACE
  8
CATTEXP
 10
   5.510000
 20
   5.630000
 30
   0.000000
 11
   7.180000
 21
   5.630000
 31
   0.000000
 12
   5.510000
 22
   5.630000
 32
   0.830000
 13
   5.510000
 23
   5.630000
 33
   0.830000
 62
151
  0
3DFACE
  8
CATTEXP
 10
   5.000000
 20
   4.940000
 30
   0.900000
 11
   7.180000
 21
   4.940000
 31
   0.900000
 12
   7.180000
 22
   4.340000
 32
   0.900000
 13
   5.000000
 23
   4.340000
 33
   0.900000
 62
 31
  0
3DFACE
  8
CATTEXP
 10
   0.770000
 20
   1.580000
 30
   0.750000
 11
   0.770000
 21
   4.800000
 31
   0.750000
 12
   0.770000
 22
   4.800000
 32
   0.550000
 13
   0.770000
 23
   4.800000
 33
   0.550000
 62
  5
  0
3DFACE
  8
CATTEXP
 10
   0.770000
 20
   1.580000
 30
   0.550000
 11
   0.770000
 21
   1.580000
 31
   0.750000
 12
   0.770000
 22
   4.800000
 32
   0.550000
 13
   0.770000
 23
   4.800000
 33
   0.550000
 62
  5
  0
3DFACE
  8
CATTEXP
 10
   0.770000
 20
   1.810000
 30
   0.350000
 11
   0.770000
 21
   1.810000
 31
   0.550000
 12
   0.770000
 22
   4.590000
 32
   0.550000
 13
   0.770000
 23
   4.590000
 33
   0.550000
 62
  5
  0
3DFACE
  8
CATTEXP
 10
   0.770000
 20
   4.590000
 30
   0.350000
 11
   0.770000
 21
   1.810000
 31
   0.350000
 12
   0.770000
 22
   4.590000
 32
   0.550000
 13
   0.770000
 23
   4.590000
 33
   0.550000
 62
  5
  0
3DFACE
  8
CATTEXP
 10
   1.460000
 20
   1.810000
 30
   0.350000
 11
   1.460000
 21
   1.590000
 31
   0.000000
 12
   1.460000
 22
   1.590000
 32
   0.550000
 13
   1.460000
 23
   1.590000
 33
   0.550000
 62
  5
  0
3DFACE
  8
CATTEXP
 10
   1.460000
 20
   3.880000
 30
   0.000000
 11
   1.460000
 21
   1.590000
 31
   0.000000
 12
   1.460000
 22
   1.810000
 32
   0.350000
 13
   1.460000
 23
   1.810000
 33
   0.350000
 62
  5
  0
3DFACE
  8
CATTEXP
 10
   1.460000
 20
   3.880000
 30
   0.350000
 11
   1.460000
 21
   3.880000
 31
   0.000000
 12
   1.460000
 22
   1.810000
 32
   0.350000
 13
   1.460000
 23
   1.810000
 33
   0.350000
 62
  5
  0
3DFACE
  8
CATTEXP
 10
   1.460000
 20
   1.810000
 30
   0.550000
 11
   1.460000
 21
   1.810000
 31
   0.350000
 12
   1.460000
 22
   1.590000
 32
   0.550000
 13
   1.460000
 23
   1.590000
 33
   0.550000
 62
  5
  0
3DFACE
  8
CATTEXP
 10
   5.010000
 20
   2.580000
 30
   0.900000
 11
   6.440000
 21
   2.580000
 31
   0.900000
 12
   6.440000
 22
   3.400000
 32
   0.900000
 13
   5.010000
 23
   3.400000
 33
   0.900000
 62
151
  0
3DFACE
  8
CATTEXP
 10
   5.010000
 20
   3.400000
 30
   0.900000
 11
   6.440000
 21
   3.400000
 31
   0.900000
 12
   6.440000
 22
   2.580000
 32
   0.900000
 13
   5.010000
 23
   2.580000
 33
   0.900000
 62
151
  0
3DFACE
  8
CATTEXP
 10
   3.590000
 20
   6.600000
 30
   1.570000
 11
   3.590000
 21
   6.600000
 31
   0.000000
 12
   3.590000
 22
   6.050000
 32
   0.000000
 13
   3.590000
 23
   6.050000
 33
   1.570000
 62
111
  0
3DFACE
  8
CATTEXP
 10
   3.590000
 20
   6.050000
 30
   1.570000
 11
   3.590000
 21
   6.050000
 31
   0.000000
 12
   3.590000
 22
   6.600000
 32
   0.000000
 13
   3.590000
 23
   6.600000
 33
   1.570000
 62
111
  0
3DFACE
  8
CATTEXP
 10
   5.510000
 20
   6.350000
 30
   0.000000
 11
   5.510000
 21
   6.350000
 31
   1.570000
 12
   6.050000
 22
   6.350000
 32
   1.570000
 13
   6.050000
 23
   6.350000
 33
   0.000000
 62
111
  0
3DFACE
  8
CATTEXP
 10
   6.050000
 20
   6.350000
 30
   0.000000
 11
   6.050000
 21
   6.350000
 31
   1.570000
 12
   5.510000
 22
   6.350000
 32
   1.570000
 13
   5.510000
 23
   6.350000
 33
   0.000000
 62
111
  0
3DFACE
  8
CATTEXP
 10
   5.510000
 20
   6.530000
 30
   0.500000
 11
   5.510000
 21
   6.530000
 31
   0.000000
 12
   7.180000
 22
   6.530000
 32
   0.000000
 13
   7.180000
 23
   6.530000
 33
   0.500000
 62
254
  0
3DFACE
  8
CATTEXP
 10
   7.180000
 20
   6.530000
 30
   0.500000
 11
   7.180000
 21
   6.530000
 31
   0.000000
 12
   5.510000
 22
   6.530000
 32
   0.000000
 13
   5.510000
 23
   6.530000
 33
   0.500000
 62
254
  0
3DFACE
  8
CATTEXP
 10
   3.200000
 20
   5.230000
 30
   0.000000
 11
   3.200000
 21
   5.230000
 31
   1.570000
 12
   2.680000
 22
   5.230000
 32
   1.570000
 13
   2.680000
 23
   5.230000
 33
   0.000000
 62
111
  0
3DFACE
  8
CATTEXP
 10
   2.680000
 20
   5.230000
 30
   0.000000
 11
   2.680000
 21
   5.230000
 31
   1.570000
 12
   3.200000
 22
   5.230000
 32
   1.570000
 13
   3.200000
 23
   5.230000
 33
   0.000000
 62
111
  0
3DFACE
  8
CATTEXP
 10
   4.110000
 20
   4.440000
 30
   0.000000
 11
   4.110000
 21
   4.940000
 31
   0.000000
 12
   4.110000
 22
   4.940000
 32
   1.580000
 13
   4.110000
 23
   4.440000
 33
   1.580000
 62
111
  0
3DFACE
  8
CATTEXP
 10
   4.110000
 20
   4.440000
 30
   1.580000
 11
   4.110000
 21
   4.940000
 31
   1.580000
 12
   4.110000
 22
   4.940000
 32
   0.000000
 13
   4.110000
 23
   4.440000
 33
   0.000000
 62
111
  0
3DFACE
  8
CATTEXP
 10
   1.120000
 20
   5.100000
 30
   1.800000
 11
   1.120000
 21
   5.530000
 31
   1.800000
 12
   1.120000
 22
   5.530000
 32
   0.000000
 13
   1.120000
 23
   5.100000
 33
   0.000000
 62
151
  0
3DFACE
  8
CATTEXP
 10
   1.820000
 20
   3.420000
 30
   0.450000
 11
   2.560000
 21
   3.420000
 31
   0.450000
 12
   2.560000
 22
   2.470000
 32
   0.450000
 13
   1.820000
 23
   2.470000
 33
   0.450000
 62
151
  0
3DFACE
  8
CATTEXP
 10
   0.640000
 20
   4.800000
 30
   0.000000
 11
   1.430000
 21
   4.800000
 31
   0.000000
 12
   1.430000
 22
   4.800000
 32
   0.550000
 13
   1.430000
 23
   4.800000
 33
   0.550000
 62
  5
  0
3DFACE
  8
CATTEXP
 10
   0.770000
 20
   4.800000
 30
   0.550000
 11
   0.640000
 21
   4.800000
 31
   0.000000
 12
   1.430000
 22
   4.800000
 32
   0.550000
 13
   1.430000
 23
   4.800000
 33
   0.550000
 62
  5
  0
3DFACE
  8
CATTEXP
 10
   0.640000
 20
   4.800000
 30
   0.750000
 11
   0.640000
 21
   4.800000
 31
   0.000000
 12
   0.770000
 22
   4.800000
 32
   0.550000
 13
   0.770000
 23
   4.800000
 33
   0.550000
 62
  5
  0
3DFACE
  8
CATTEXP
 10
   0.770000
 20
   4.800000
 30
   0.750000
 11
   0.640000
 21
   4.800000
 31
   0.750000
 12
   0.770000
 22
   4.800000
 32
   0.550000
 13
   0.770000
 23
   4.800000
 33
   0.550000
 62
  5
  0
3DFACE
  8
CATTEXP
 10
   5.850000
 20
   5.630000
 30
   0.830000
 11
   6.900000
 21
   5.630000
 31
   0.830000
 12
   6.900000
 22
   5.100000
 32
   0.830000
 13
   5.850000
 23
   5.100000
 33
   0.830000
 62
 31
  0
3DFACE
  8
CATTEXP
 10
   0.840000
 20
   5.930000
 30
   0.300000
 11
   2.650000
 21
   5.930000
 31
   0.300000
 12
   2.650000
 22
   5.930000
 32
   0.000000
 13
   0.840000
 23
   5.930000
 33
   0.000000
 62
252
  0
3DFACE
  8
CATTEXP
 10
   4.530000
 20
   4.940000
 30
   0.000000
 11
   4.530000
 21
   4.940000
 31
   0.900000
 12
   4.530000
 22
   4.340000
 32
   0.900000
 13
   4.530000
 23
   4.340000
 33
   0.000000
 62
151
  0
3DFACE
  8
CATTEXP
 10
   1.820000
 20
   3.420000
 30
   0.450000
 11
   1.820000
 21
   2.470000
 31
   0.450000
 12
   1.820000
 22
   2.470000
 32
   0.000000
 13
   1.820000
 23
   3.420000
 33
   0.000000
 62
151
  0
3DFACE
  8
CATTEXP
 10
   2.560000
 20
   2.470000
 30
   0.450000
 11
   2.560000
 21
   3.420000
 31
   0.450000
 12
   2.560000
 22
   3.420000
 32
   0.000000
 13
   2.560000
 23
   2.470000
 33
   0.000000
 62
151
  0
3DFACE
  8
CATTEXP
 10
   0.840000
 20
   7.350000
 30
   0.300000
 11
   0.840000
 21
   5.930000
 31
   0.300000
 12
   0.840000
 22
   5.930000
 32
   0.000000
 13
   0.840000
 23
   7.350000
 33
   0.000000
 62
252
  0
3DFACE
  8
CATTEXP
 10
   2.650000
 20
   5.930000
 30
   0.300000
 11
   2.650000
 21
   7.350000
 31
   0.300000
 12
   2.650000
 22
   7.350000
 32
   0.000000
 13
   2.650000
 23
   5.930000
 33
   0.000000
 62
252
  0
3DFACE
  8
CATTEXP
 10
   0.770000
 20
   4.800000
 30
   0.750000
 11
   0.770000
 21
   1.580000
 31
   0.750000
 12
   0.640000
 22
   1.580000
 32
   0.750000
 13
   0.640000
 23
   4.800000
 33
   0.750000
 62
  5
  0
3DFACE
  8
CATTEXP
 10
   2.560000
 20
   4.590000
 30
   0.350000
 11
   1.430000
 21
   4.590000
 31
   0.350000
 12
   1.430000
 22
   4.590000
 32
   0.000000
 13
   2.560000
 23
   4.590000
 33
   0.000000
 62
  5
  0
3DFACE
  8
CATTEXP
 10
   1.460000
 20
   3.880000
 30
   0.350000
 11
   2.560000
 21
   3.880000
 31
   0.350000
 12
   2.560000
 22
   3.880000
 32
   0.000000
 13
   1.460000
 23
   3.880000
 33
   0.000000
 62
  5
  0
3DFACE
  8
CATTEXP
 10
   1.120000
 20
   5.530000
 30
   1.800000
 11
   1.120000
 21
   5.100000
 31
   1.800000
 12
   0.310000
 22
   5.100000
 32
   1.800000
 13
   0.310000
 23
   5.530000
 33
   1.800000
 62
151
  0
3DFACE
  8
CATTEXP
 10
   1.820000
 20
   2.470000
 30
   0.450000
 11
   2.560000
 21
   2.470000
 31
   0.450000
 12
   2.560000
 22
   2.470000
 32
   0.000000
 13
   1.820000
 23
   2.470000
 33
   0.000000
 62
151
  0
3DFACE
  8
CATTEXP
 10
   2.560000
 20
   3.420000
 30
   0.450000
 11
   1.820000
 21
   3.420000
 31
   0.450000
 12
   1.820000
 22
   3.420000
 32
   0.000000
 13
   2.560000
 23
   3.420000
 33
   0.000000
 62
151
  0
3DFACE
  8
CATTEXP
 10
   4.420000
 20
   0.190000
 30
   1.000000
 11
   4.080000
 21
   0.390000
 31
   1.000000
 12
   4.470000
 22
   0.770000
 32
   1.000000
 13
   4.570000
 23
   0.710000
 33
   1.000000
 62
151
  0
3DFACE
  8
CATTEXP
 10
   4.570000
 20
   0.710000
 30
   1.000000
 11
   4.470000
 21
   0.770000
 31
   1.000000
 12
   4.080000
 22
   0.390000
 32
   1.000000
 13
   4.420000
 23
   0.190000
 33
   1.000000
 62
151
  0
3DFACE
  8
CATTEXP
 10
   4.090000
 20
   5.870000
 30
   0.000000
 11
   4.090000
 21
   6.050000
 31
   0.000000
 12
   4.090000
 22
   6.050000
 32
   1.570000
 13
   4.090000
 23
   5.870000
 33
   1.570000
 62
151
  0
3DFACE
  8
CATTEXP
 10
   3.590000
 20
   6.050000
 30
   1.570000
 11
   3.590000
 21
   6.050000
 31
   0.000000
 12
   3.590000
 22
   5.870000
 32
   0.000000
 13
   3.590000
 23
   5.870000
 33
   1.570000
 62
151
  0
3DFACE
  8
CATTEXP
 10
   5.000000
 20
   4.340000
 30
   0.900000
 11
   4.530000
 21
   4.340000
 31
   0.900000
 12
   4.530000
 22
   4.940000
 32
   0.900000
 13
   5.000000
 23
   4.940000
 33
   0.900000
 62
151
  0
3DFACE
  8
CATTEXP
 10
   4.080000
 20
   0.390000
 30
   1.200000
 11
   3.890000
 21
   0.730000
 31
   1.200000
 12
   4.410000
 22
   0.870000
 32
   1.200000
 13
   4.470000
 23
   0.770000
 33
   1.200000
 62
151
  0
3DFACE
  8
CATTEXP
 10
   4.470000
 20
   0.770000
 30
   1.200000
 11
   4.410000
 21
   0.870000
 31
   1.200000
 12
   3.890000
 22
   0.730000
 32
   1.200000
 13
   4.080000
 23
   0.390000
 33
   1.200000
 62
151
  0
3DFACE
  8
CATTEXP
 10
   5.160000
 20
   0.380000
 30
   0.600000
 11
   4.810000
 21
   0.180000
 31
   0.600000
 12
   4.680000
 22
   0.710000
 32
   0.600000
 13
   4.780000
 23
   0.760000
 33
   0.600000
 62
151
  0
3DFACE
  8
CATTEXP
 10
   4.780000
 20
   0.760000
 30
   0.600000
 11
   4.680000
 21
   0.710000
 31
   0.600000
 12
   4.810000
 22
   0.180000
 32
   0.600000
 13
   5.160000
 23
   0.380000
 33
   0.600000
 62
151
  0
3DFACE
  8
CATTEXP
 10
   5.360000
 20
   0.710000
 30
   0.400000
 11
   5.160000
 21
   0.380000
 31
   0.400000
 12
   4.780000
 22
   0.760000
 32
   0.400000
 13
   4.840000
 23
   0.860000
 33
   0.400000
 62
151
  0
3DFACE
  8
CATTEXP
 10
   4.840000
 20
   0.860000
 30
   0.400000
 11
   4.780000
 21
   0.760000
 31
   0.400000
 12
   5.160000
 22
   0.380000
 32
   0.400000
 13
   5.360000
 23
   0.710000
 33
   0.400000
 62
151
  0
3DFACE
  8
CATTEXP
 10
   4.070000
 20
   6.750000
 30
   0.450000
 11
   4.070000
 21
   7.350000
 31
   0.450000
 12
   4.070000
 22
   7.350000
 32
   0.000000
 13
   4.070000
 23
   6.750000
 33
   0.000000
 62
254
  0
3DFACE
  8
CATTEXP
 10
   3.640000
 20
   7.350000
 30
   0.450000
 11
   3.640000
 21
   6.750000
 31
   0.450000
 12
   3.640000
 22
   6.750000
 32
   0.000000
 13
   3.640000
 23
   7.350000
 33
   0.000000
 62
254
  0
3DFACE
  8
CATTEXP
 10
   6.760000
 20
   3.280000
 30
   0.460000
 11
   6.280000
 21
   3.280000
 31
   0.460000
 12
   6.280000
 22
   2.730000
 32
   0.460000
 13
   6.280000
 23
   2.730000
 33
   0.460000
 62
151
  0
3DFACE
  8
CATTEXP
 10
   6.760000
 20
   2.730000
 30
   0.460000
 11
   6.760000
 21
   3.280000
 31
   0.460000
 12
   6.280000
 22
   2.730000
 32
   0.460000
 13
   6.280000
 23
   2.730000
 33
   0.460000
 62
151
  0
3DFACE
  8
CATTEXP
 10
   6.280000
 20
   3.280000
 30
   0.460000
 11
   6.760000
 21
   3.280000
 31
   0.460000
 12
   6.760000
 22
   2.730000
 32
   0.460000
 13
   6.760000
 23
   2.730000
 33
   0.460000
 62
151
  0
3DFACE
  8
CATTEXP
 10
   6.280000
 20
   2.730000
 30
   0.460000
 11
   6.280000
 21
   3.280000
 31
   0.460000
 12
   6.760000
 22
   2.730000
 32
   0.460000
 13
   6.760000
 23
   2.730000
 33
   0.460000
 62
151
  0
3DFACE
  8
CATTEXP
 10
   1.250000
 20
   1.230000
 30
   0.910000
 11
   1.250000
 21
   1.230000
 31
   0.460000
 12
   1.830000
 22
   1.230000
 32
   0.460000
 13
   1.830000
 23
   1.230000
 33
   0.910000
 62
151
  0
3DFACE
  8
CATTEXP
 10
   1.830000
 20
   1.230000
 30
   0.910000
 11
   1.830000
 21
   1.230000
 31
   0.460000
 12
   1.250000
 22
   1.230000
 32
   0.460000
 13
   1.250000
 23
   1.230000
 33
   0.910000
 62
151
  0
3DFACE
  8
CATTEXP
 10
   4.070000
 20
   6.750000
 30
   0.450000
 11
   3.640000
 21
   6.750000
 31
   0.450000
 12
   3.640000
 22
   7.350000
 32
   0.450000
 13
   4.070000
 23
   7.350000
 33
   0.450000
 62
254
  0
3DFACE
  8
CATTEXP
 10
   3.590000
 20
   4.940000
 30
   1.580000
 11
   3.590000
 21
   5.100000
 31
   1.580000
 12
   3.590000
 22
   5.100000
 32
   0.000000
 13
   3.590000
 23
   4.940000
 33
   0.000000
 62
151
  0
3DFACE
  8
CATTEXP
 10
   4.110000
 20
   4.940000
 30
   0.000000
 11
   4.110000
 21
   5.100000
 31
   0.000000
 12
   4.110000
 22
   5.100000
 32
   1.580000
 13
   4.110000
 23
   4.940000
 33
   1.580000
 62
151
  0
3DFACE
  8
CATTEXP
 10
   5.510000
 20
   5.840000
 30
   0.000000
 11
   5.510000
 21
   5.840000
 31
   1.570000
 12
   5.350000
 22
   5.840000
 32
   1.570000
 13
   5.350000
 23
   5.840000
 33
   0.000000
 62
151
  0
3DFACE
  8
CATTEXP
 10
   5.350000
 20
   6.350000
 30
   0.000000
 11
   5.350000
 21
   6.350000
 31
   1.570000
 12
   5.510000
 22
   6.350000
 32
   1.570000
 13
   5.510000
 23
   6.350000
 33
   0.000000
 62
151
  0
3DFACE
  8
CATTEXP
 10
   1.830000
 20
   1.230000
 30
   0.460000
 11
   1.250000
 21
   1.230000
 31
   0.460000
 12
   1.250000
 22
   0.800000
 32
   0.460000
 13
   1.830000
 23
   0.800000
 33
   0.460000
 62
151
  0
3DFACE
  8
CATTEXP
 10
   1.830000
 20
   0.800000
 30
   0.460000
 11
   1.250000
 21
   0.800000
 31
   0.460000
 12
   1.250000
 22
   1.230000
 32
   0.460000
 13
   1.830000
 23
   1.230000
 33
   0.460000
 62
151
  0
3DFACE
  8
CATTEXP
 10
   2.560000
 20
   3.880000
 30
   0.350000
 11
   2.560000
 21
   4.590000
 31
   0.350000
 12
   2.560000
 22
   4.590000
 32
   0.000000
 13
   2.560000
 23
   3.880000
 33
   0.000000
 62
  5
  0
3DFACE
  8
CATTEXP
 10
   4.710000
 20
   2.720000
 30
   0.460000
 11
   5.160000
 21
   2.720000
 31
   0.460000
 12
   5.160000
 22
   3.270000
 32
   0.460000
 13
   5.160000
 23
   3.270000
 33
   0.460000
 62
151
  0
3DFACE
  8
CATTEXP
 10
   4.710000
 20
   3.270000
 30
   0.460000
 11
   4.710000
 21
   2.720000
 31
   0.460000
 12
   5.160000
 22
   3.270000
 32
   0.460000
 13
   5.160000
 23
   3.270000
 33
   0.460000
 62
151
  0
3DFACE
  8
CATTEXP
 10
   4.710000
 20
   2.720000
 30
   0.460000
 11
   4.710000
 21
   3.270000
 31
   0.460000
 12
   5.160000
 22
   3.270000
 32
   0.460000
 13
   5.160000
 23
   3.270000
 33
   0.460000
 62
151
  0
3DFACE
  8
CATTEXP
 10
   5.160000
 20
   2.720000
 30
   0.460000
 11
   4.710000
 21
   2.720000
 31
   0.460000
 12
   5.160000
 22
   3.270000
 32
   0.460000
 13
   5.160000
 23
   3.270000
 33
   0.460000
 62
151
  0
3DFACE
  8
CATTEXP
 10
   4.710000
 20
   2.720000
 30
   0.460000
 11
   4.710000
 21
   3.270000
 31
   0.460000
 12
   4.710000
 22
   3.270000
 32
   0.910000
 13
   4.710000
 23
   3.270000
 33
   0.910000
 62
151
  0
3DFACE
  8
CATTEXP
 10
   4.710000
 20
   2.720000
 30
   0.910000
 11
   4.710000
 21
   2.720000
 31
   0.460000
 12
   4.710000
 22
   3.270000
 32
   0.910000
 13
   4.710000
 23
   3.270000
 33
   0.910000
 62
151
  0
3DFACE
  8
CATTEXP
 10
   4.710000
 20
   3.270000
 30
   0.460000
 11
   4.710000
 21
   2.720000
 31
   0.460000
 12
   4.710000
 22
   2.720000
 32
   0.910000
 13
   4.710000
 23
   2.720000
 33
   0.910000
 62
151
  0
3DFACE
  8
CATTEXP
 10
   4.710000
 20
   3.270000
 30
   0.910000
 11
   4.710000
 21
   3.270000
 31
   0.460000
 12
   4.710000
 22
   2.720000
 32
   0.910000
 13
   4.710000
 23
   2.720000
 33
   0.910000
 62
151
  0
3DFACE
  8
CATTEXP
 10
   6.760000
 20
   2.730000
 30
   0.910000
 11
   6.760000
 21
   3.280000
 31
   0.910000
 12
   6.760000
 22
   3.280000
 32
   0.460000
 13
   6.760000
 23
   3.280000
 33
   0.460000
 62
151
  0
3DFACE
  8
CATTEXP
 10
   6.760000
 20
   2.730000
 30
   0.460000
 11
   6.760000
 21
   2.730000
 31
   0.910000
 12
   6.760000
 22
   3.280000
 32
   0.460000
 13
   6.760000
 23
   3.280000
 33
   0.460000
 62
151
  0
3DFACE
  8
CATTEXP
 10
   6.760000
 20
   2.730000
 30
   0.910000
 11
   6.760000
 21
   2.730000
 31
   0.460000
 12
   6.760000
 22
   3.280000
 32
   0.460000
 13
   6.760000
 23
   3.280000
 33
   0.460000
 62
151
  0
3DFACE
  8
CATTEXP
 10
   6.760000
 20
   3.280000
 30
   0.910000
 11
   6.760000
 21
   2.730000
 31
   0.910000
 12
   6.760000
 22
   3.280000
 32
   0.460000
 13
   6.760000
 23
   3.280000
 33
   0.460000
 62
151
  0
3DFACE
  8
CATTEXP
 10
   6.310000
 20
   2.160000
 30
   0.910000
 11
   6.310000
 21
   2.160000
 31
   0.460000
 12
   5.780000
 22
   2.160000
 32
   0.460000
 13
   5.780000
 23
   2.160000
 33
   0.910000
 62
151
  0
3DFACE
  8
CATTEXP
 10
   5.780000
 20
   2.160000
 30
   0.910000
 11
   5.780000
 21
   2.160000
 31
   0.460000
 12
   6.310000
 22
   2.160000
 32
   0.460000
 13
   6.310000
 23
   2.160000
 33
   0.910000
 62
151
  0
3DFACE
  8
CATTEXP
 10
   3.350000
 20
   5.230000
 30
   0.000000
 11
   3.350000
 21
   5.230000
 31
   1.570000
 12
   3.200000
 22
   5.230000
 32
   1.570000
 13
   3.200000
 23
   5.230000
 33
   0.000000
 62
151
  0
3DFACE
  8
CATTEXP
 10
   3.200000
 20
   5.730000
 30
   0.000000
 11
   3.200000
 21
   5.730000
 31
   1.570000
 12
   3.350000
 22
   5.730000
 32
   1.570000
 13
   3.350000
 23
   5.730000
 33
   0.000000
 62
151
  0
3DFACE
  8
CATTEXP
 10
   5.140000
 20
   3.830000
 30
   0.910000
 11
   5.140000
 21
   3.830000
 31
   0.460000
 12
   5.660000
 22
   3.830000
 32
   0.460000
 13
   5.660000
 23
   3.830000
 33
   0.910000
 62
151
  0
3DFACE
  8
CATTEXP
 10
   5.660000
 20
   3.830000
 30
   0.910000
 11
   5.660000
 21
   3.830000
 31
   0.460000
 12
   5.140000
 22
   3.830000
 32
   0.460000
 13
   5.140000
 23
   3.830000
 33
   0.910000
 62
151
  0
3DFACE
  8
CATTEXP
 10
   5.130000
 20
   2.160000
 30
   0.460000
 11
   5.130000
 21
   2.160000
 31
   0.910000
 12
   5.650000
 22
   2.160000
 32
   0.910000
 13
   5.650000
 23
   2.160000
 33
   0.460000
 62
151
  0
3DFACE
  8
CATTEXP
 10
   5.650000
 20
   2.160000
 30
   0.460000
 11
   5.650000
 21
   2.160000
 31
   0.910000
 12
   5.130000
 22
   2.160000
 32
   0.910000
 13
   5.130000
 23
   2.160000
 33
   0.460000
 62
151
  0
3DFACE
  8
CATTEXP
 10
   5.790000
 20
   3.830000
 30
   0.910000
 11
   5.790000
 21
   3.830000
 31
   0.460000
 12
   6.300000
 22
   3.830000
 32
   0.460000
 13
   6.300000
 23
   3.830000
 33
   0.910000
 62
151
  0
3DFACE
  8
CATTEXP
 10
   6.300000
 20
   3.830000
 30
   0.910000
 11
   6.300000
 21
   3.830000
 31
   0.460000
 12
   5.790000
 22
   3.830000
 32
   0.460000
 13
   5.790000
 23
   3.830000
 33
   0.910000
 62
151
  0
3DFACE
  8
CATTEXP
 10
   5.660000
 20
   3.830000
 30
   0.460000
 11
   5.140000
 21
   3.830000
 31
   0.460000
 12
   5.140000
 22
   3.400000
 32
   0.460000
 13
   5.660000
 23
   3.400000
 33
   0.460000
 62
151
  0
3DFACE
  8
CATTEXP
 10
   5.660000
 20
   3.400000
 30
   0.460000
 11
   5.140000
 21
   3.400000
 31
   0.460000
 12
   5.140000
 22
   3.830000
 32
   0.460000
 13
   5.660000
 23
   3.830000
 33
   0.460000
 62
151
  0
3DFACE
  8
CATTEXP
 10
   5.780000
 20
   2.160000
 30
   0.460000
 11
   6.310000
 21
   2.160000
 31
   0.460000
 12
   6.310000
 22
   2.580000
 32
   0.460000
 13
   5.780000
 23
   2.580000
 33
   0.460000
 62
151
  0
3DFACE
  8
CATTEXP
 10
   5.780000
 20
   2.580000
 30
   0.460000
 11
   6.310000
 21
   2.580000
 31
   0.460000
 12
   6.310000
 22
   2.160000
 32
   0.460000
 13
   5.780000
 23
   2.160000
 33
   0.460000
 62
151
  0
3DFACE
  8
CATTEXP
 10
   6.300000
 20
   3.830000
 30
   0.460000
 11
   5.790000
 21
   3.830000
 31
   0.460000
 12
   5.790000
 22
   3.400000
 32
   0.460000
 13
   6.300000
 23
   3.400000
 33
   0.460000
 62
151
  0
3DFACE
  8
CATTEXP
 10
   6.300000
 20
   3.400000
 30
   0.460000
 11
   5.790000
 21
   3.400000
 31
   0.460000
 12
   5.790000
 22
   3.830000
 32
   0.460000
 13
   6.300000
 23
   3.830000
 33
   0.460000
 62
151
  0
3DFACE
  8
CATTEXP
 10
   5.130000
 20
   2.160000
 30
   0.460000
 11
   5.650000
 21
   2.160000
 31
   0.460000
 12
   5.650000
 22
   2.580000
 32
   0.460000
 13
   5.130000
 23
   2.580000
 33
   0.460000
 62
151
  0
3DFACE
  8
CATTEXP
 10
   5.130000
 20
   2.580000
 30
   0.460000
 11
   5.650000
 21
   2.580000
 31
   0.460000
 12
   5.650000
 22
   2.160000
 32
   0.460000
 13
   5.130000
 23
   2.160000
 33
   0.460000
 62
151
  0
3DFACE
  8
CATTEXP
 10
   5.360000
 20
   1.110000
 30
   0.200000
 11
   5.360000
 21
   0.710000
 31
   0.200000
 12
   4.840000
 22
   0.860000
 32
   0.200000
 13
   4.840000
 23
   0.970000
 33
   0.200000
 62
151
  0
3DFACE
  8
CATTEXP
 10
   4.840000
 20
   0.970000
 30
   0.200000
 11
   4.840000
 21
   0.860000
 31
   0.200000
 12
   5.360000
 22
   0.710000
 32
   0.200000
 13
   5.360000
 23
   1.110000
 33
   0.200000
 62
151
  0
3DFACE
  8
CATTEXP
 10
   3.890000
 20
   0.730000
 30
   1.400000
 11
   3.890000
 21
   1.120000
 31
   1.400000
 12
   4.420000
 22
   0.980000
 32
   1.400000
 13
   4.410000
 23
   0.870000
 33
   1.400000
 62
151
  0
3DFACE
  8
CATTEXP
 10
   4.410000
 20
   0.870000
 30
   1.400000
 11
   4.420000
 21
   0.980000
 31
   1.400000
 12
   3.890000
 22
   1.120000
 32
   1.400000
 13
   3.890000
 23
   0.730000
 33
   1.400000
 62
151
  0
3DFACE
  8
CATTEXP
 10
   4.810000
 20
   0.180000
 30
   0.800000
 11
   4.420000
 21
   0.190000
 31
   0.800000
 12
   4.570000
 22
   0.710000
 32
   0.800000
 13
   4.680000
 23
   0.710000
 33
   0.800000
 62
151
  0
3DFACE
  8
CATTEXP
 10
   4.680000
 20
   0.710000
 30
   0.800000
 11
   4.570000
 21
   0.710000
 31
   0.800000
 12
   4.420000
 22
   0.190000
 32
   0.800000
 13
   4.810000
 23
   0.180000
 33
   0.800000
 62
151
  0
3DFACE
  8
CATTEXP
 10
   3.640000
 20
   6.750000
 30
   0.450000
 11
   4.070000
 21
   6.750000
 31
   0.450000
 12
   4.070000
 22
   6.750000
 32
   0.000000
 13
   3.640000
 23
   6.750000
 33
   0.000000
 62
254
  0
3DFACE
  8
CATTEXP
 10
   5.850000
 20
   5.100000
 30
   0.830000
 11
   5.510000
 21
   5.100000
 31
   0.830000
 12
   5.510000
 22
   5.630000
 32
   0.830000
 13
   5.850000
 23
   5.630000
 33
   0.830000
 62
151
  0
3DFACE
  8
CATTEXP
 10
   1.460000
 20
   1.810000
 30
   0.550000
 11
   1.460000
 21
   1.590000
 31
   0.550000
 12
   0.770000
 22
   1.580000
 32
   0.550000
 13
   0.770000
 23
   1.810000
 33
   0.550000
 62
  5
  0
3DFACE
  8
CATTEXP
 10
   6.900000
 20
   5.630000
 30
   0.830000
 11
   7.180000
 21
   5.630000
 31
   0.830000
 12
   7.180000
 22
   5.100000
 32
   0.830000
 13
   6.900000
 23
   5.100000
 33
   0.830000
 62
151
  0
3DFACE
  8
CATTEXP
 10
   0.390000
 20
   7.030000
 30
   0.400000
 11
   0.740000
 21
   7.030000
 31
   0.400000
 12
   0.740000
 22
   7.030000
 32
   0.000000
 13
   0.390000
 23
   7.030000
 33
   0.000000
 62
151
  0
3DFACE
  8
CATTEXP
 10
   0.770000
 20
   4.590000
 30
   0.550000
 11
   0.770000
 21
   4.800000
 31
   0.550000
 12
   1.430000
 22
   4.800000
 32
   0.550000
 13
   1.430000
 23
   4.590000
 33
   0.550000
 62
  5
  0
3DFACE
  8
CATTEXP
 10
   1.460000
 20
   1.810000
 30
   0.550000
 11
   0.770000
 21
   1.810000
 31
   0.550000
 12
   0.770000
 22
   1.810000
 32
   0.350000
 13
   1.460000
 23
   1.810000
 33
   0.350000
 62
  5
  0
3DFACE
  8
CATTEXP
 10
   2.750000
 20
   7.030000
 30
   0.400000
 11
   3.090000
 21
   7.030000
 31
   0.400000
 12
   3.090000
 22
   7.030000
 32
   0.000000
 13
   2.750000
 23
   7.030000
 33
   0.000000
 62
151
  0
3DFACE
  8
CATTEXP
 10
   0.770000
 20
   4.590000
 30
   0.550000
 11
   1.430000
 21
   4.590000
 31
   0.550000
 12
   1.430000
 22
   4.590000
 32
   0.350000
 13
   0.770000
 23
   4.590000
 33
   0.350000
 62
  5
  0
3DFACE
  8
CATTEXP
 10
   0.740000
 20
   7.030000
 30
   0.400000
 11
   0.740000
 21
   7.350000
 31
   0.400000
 12
   0.740000
 22
   7.350000
 32
   0.000000
 13
   0.740000
 23
   7.030000
 33
   0.000000
 62
151
  0
3DFACE
  8
CATTEXP
 10
   0.390000
 20
   7.350000
 30
   0.400000
 11
   0.390000
 21
   7.030000
 31
   0.400000
 12
   0.390000
 22
   7.030000
 32
   0.000000
 13
   0.390000
 23
   7.350000
 33
   0.000000
 62
151
  0
3DFACE
  8
CATTEXP
 10
   3.090000
 20
   7.030000
 30
   0.400000
 11
   3.090000
 21
   7.350000
 31
   0.400000
 12
   3.090000
 22
   7.350000
 32
   0.000000
 13
   3.090000
 23
   7.030000
 33
   0.000000
 62
151
  0
3DFACE
  8
CATTEXP
 10
   2.750000
 20
   7.350000
 30
   0.400000
 11
   2.750000
 21
   7.030000
 31
   0.400000
 12
   2.750000
 22
   7.030000
 32
   0.000000
 13
   2.750000
 23
   7.350000
 33
   0.000000
 62
151
  0
3DFACE
  8
CATTEXP
 10
   1.430000
 20
   4.800000
 30
   0.000000
 11
   1.430000
 21
   4.590000
 31
   0.000000
 12
   1.430000
 22
   4.590000
 32
   0.550000
 13
   1.430000
 23
   4.590000
 33
   0.550000
 62
  5
  0
3DFACE
  8
CATTEXP
 10
   1.430000
 20
   4.800000
 30
   0.550000
 11
   1.430000
 21
   4.800000
 31
   0.000000
 12
   1.430000
 22
   4.590000
 32
   0.550000
 13
   1.430000
 23
   4.590000
 33
   0.550000
 62
  5
  0
3DFACE
  8
CATTEXP
 10
   0.740000
 20
   7.030000
 30
   0.400000
 11
   0.390000
 21
   7.030000
 31
   0.400000
 12
   0.390000
 22
   7.350000
 32
   0.400000
 13
   0.740000
 23
   7.350000
 33
   0.400000
 62
151
  0
3DFACE
  8
CATTEXP
 10
   3.090000
 20
   7.030000
 30
   0.400000
 11
   2.750000
 21
   7.030000
 31
   0.400000
 12
   2.750000
 22
   7.350000
 32
   0.400000
 13
   3.090000
 23
   7.350000
 33
   0.400000
 62
151
  0
3DFACE
  8
CATTEXP
 10
   3.590000
 20
   5.870000
 30
   1.570000
 11
   4.090000
 21
   5.870000
 31
   1.570000
 12
   4.090000
 22
   6.050000
 32
   1.570000
 13
   3.590000
 23
   6.050000
 33
   1.570000
 62
151
  0
3DFACE
  8
CATTEXP
 10
   3.590000
 20
   4.940000
 30
   1.580000
 11
   4.110000
 21
   4.940000
 31
   1.580000
 12
   4.110000
 22
   5.100000
 32
   1.580000
 13
   3.590000
 23
   5.100000
 33
   1.580000
 62
151
  0
3DFACE
  8
CATTEXP
 10
   5.350000
 20
   6.350000
 30
   1.570000
 11
   5.350000
 21
   5.840000
 31
   1.570000
 12
   5.510000
 22
   5.840000
 32
   1.570000
 13
   5.510000
 23
   6.350000
 33
   1.570000
 62
151
  0
3DFACE
  8
CATTEXP
 10
   3.200000
 20
   5.730000
 30
   1.570000
 11
   3.200000
 21
   5.230000
 31
   1.570000
 12
   3.350000
 22
   5.230000
 32
   1.570000
 13
   3.350000
 23
   5.730000
 33
   1.570000
 62
151
  0
3DFACE
  8
CATTEXP
 10
   7.180000
 20
   4.340000
 30
   0.900000
 11
   7.180000
 21
   4.940000
 31
   0.900000
 12
   7.180000
 22
   4.940000
 32
   1.870000
 13
   7.180000
 23
   4.940000
 33
   1.870000
 62
253
  0
3DFACE
  8
CATTEXP
 10
   7.180000
 20
   1.810000
 30
   0.000000
 11
   7.180000
 21
   4.340000
 31
   0.900000
 12
   7.180000
 22
   4.940000
 32
   1.870000
 13
   7.180000
 23
   4.940000
 33
   1.870000
 62
253
  0
3DFACE
  8
CATTEXP
 10
   7.180000
 20
   4.340000
 30
   0.000000
 11
   7.180000
 21
   4.340000
 31
   0.900000
 12
   7.180000
 22
   1.810000
 32
   0.000000
 13
   7.180000
 23
   1.810000
 33
   0.000000
 62
253
  0
3DFACE
  8
CATTEXP
 10
   7.180000
 20
   1.810000
 30
   1.870000
 11
   7.180000
 21
   1.810000
 31
   0.000000
 12
   7.180000
 22
   4.940000
 32
   1.870000
 13
   7.180000
 23
   4.940000
 33
   1.870000
 62
253
  0
3DFACE
  8
CATTEXP
 10
   7.180000
 20
   3.930000
 30
   1.550000
 11
   7.180000
 21
   3.930000
 31
   0.950000
 12
   7.180000
 22
   4.530000
 32
   0.950000
 13
   7.180000
 23
   4.530000
 33
   1.550000
 62
253
  0
3DFACE
  8
CATTEXP
 10
   7.180000
 20
   4.340000
 30
   0.900000
 11
   7.180000
 21
   4.940000
 31
   0.900000
 12
   7.180000
 22
   4.940000
 32
   1.870000
 13
   7.180000
 23
   4.940000
 33
   1.870000
 62
 40
  0
3DFACE
  8
CATTEXP
 10
   7.180000
 20
   1.810000
 30
   0.000000
 11
   7.180000
 21
   4.340000
 31
   0.900000
 12
   7.180000
 22
   4.940000
 32
   1.870000
 13
   7.180000
 23
   4.940000
 33
   1.870000
 62
 40
  0
3DFACE
  8
CATTEXP
 10
   7.180000
 20
   4.340000
 30
   0.000000
 11
   7.180000
 21
   4.340000
 31
   0.900000
 12
   7.180000
 22
   1.810000
 32
   0.000000
 13
   7.180000
 23
   1.810000
 33
   0.000000
 62
 40
  0
3DFACE
  8
CATTEXP
 10
   7.180000
 20
   1.810000
 30
   1.870000
 11
   7.180000
 21
   1.810000
 31
   0.000000
 12
   7.180000
 22
   4.940000
 32
   1.870000
 13
   7.180000
 23
   4.940000
 33
   1.870000
 62
 40
  0
3DFACE
  8
CATTEXP
 10
   0.640000
 20
   1.580000
 30
   0.000000
 11
   0.310000
 21
   1.580000
 31
   0.000000
 12
   0.310000
 22
   4.940000
 32
   0.000000
 13
   0.310000
 23
   4.940000
 33
   0.000000
 62
231
  0
3DFACE
  8
CATTEXP
 10
   0.640000
 20
   4.800000
 30
   0.000000
 11
   0.640000
 21
   1.580000
 31
   0.000000
 12
   0.310000
 22
   4.940000
 32
   0.000000
 13
   0.310000
 23
   4.940000
 33
   0.000000
 62
231
  0
3DFACE
  8
CATTEXP
 10
   1.430000
 20
   4.800000
 30
   0.000000
 11
   0.640000
 21
   4.800000
 31
   0.000000
 12
   0.310000
 22
   4.940000
 32
   0.000000
 13
   0.310000
 23
   4.940000
 33
   0.000000
 62
231
  0
3DFACE
  8
CATTEXP
 10
   2.560000
 20
   4.940000
 30
   0.000000
 11
   1.430000
 21
   4.800000
 31
   0.000000
 12
   0.310000
 22
   4.940000
 32
   0.000000
 13
   0.310000
 23
   4.940000
 33
   0.000000
 62
231
  0
3DFACE
  8
CATTEXP
 10
   1.430000
 20
   4.590000
 30
   0.000000
 11
   1.430000
 21
   4.800000
 31
   0.000000
 12
   2.560000
 22
   4.940000
 32
   0.000000
 13
   2.560000
 23
   4.940000
 33
   0.000000
 62
231
  0
3DFACE
  8
CATTEXP
 10
   2.560000
 20
   4.590000
 30
   0.000000
 11
   1.430000
 21
   4.590000
 31
   0.000000
 12
   2.560000
 22
   4.940000
 32
   0.000000
 13
   2.560000
 23
   4.940000
 33
   0.000000
 62
231
  0
3DFACE
  8
CATTEXP
 10
   0.310000
 20
   0.160000
 30
   1.870000
 11
   0.310000
 21
   4.940000
 31
   1.870000
 12
   0.310000
 22
   4.940000
 32
   0.000000
 13
   0.310000
 23
   4.940000
 33
   0.000000
 62
253
  0
3DFACE
  8
CATTEXP
 10
   0.310000
 20
   0.160000
 30
   0.000000
 11
   0.310000
 21
   0.160000
 31
   1.870000
 12
   0.310000
 22
   4.940000
 32
   0.000000
 13
   0.310000
 23
   4.940000
 33
   0.000000
 62
253
  0
3DFACE
  8
CATTEXP
 10
   0.310000
 20
   3.910000
 30
   0.950000
 11
   0.310000
 21
   3.910000
 31
   1.550000
 12
   0.310000
 22
   4.510000
 32
   1.550000
 13
   0.310000
 23
   4.510000
 33
   0.950000
 62
253
  0
3DFACE
  8
CATTEXP
 10
   0.310000
 20
   2.960000
 30
   1.540000
 11
   0.310000
 21
   2.960000
 31
   1.040000
 12
   0.310000
 22
   1.960000
 32
   1.040000
 13
   0.310000
 23
   1.960000
 33
   1.540000
 62
  3
  0
3DFACE
  8
CATTEXP
 10
   0.310000
 20
   0.160000
 30
   1.870000
 11
   0.310000
 21
   4.940000
 31
   1.870000
 12
   0.310000
 22
   4.940000
 32
   0.000000
 13
   0.310000
 23
   4.940000
 33
   0.000000
 62
 40
  0
3DFACE
  8
CATTEXP
 10
   0.310000
 20
   0.160000
 30
   0.000000
 11
   0.310000
 21
   0.160000
 31
   1.870000
 12
   0.310000
 22
   4.940000
 32
   0.000000
 13
   0.310000
 23
   4.940000
 33
   0.000000
 62
 40
  0
3DFACE
  8
CATTEXP
 10
   7.180000
 20
   5.630000
 30
   0.000000
 11
   5.510000
 21
   5.630000
 31
   0.000000
 12
   5.510000
 22
   6.530000
 32
   0.000000
 13
   5.510000
 23
   6.530000
 33
   0.000000
 62
254
  0
3DFACE
  8
CATTEXP
 10
   7.180000
 20
   6.530000
 30
   0.000000
 11
   7.180000
 21
   5.630000
 31
   0.000000
 12
   5.510000
 22
   6.530000
 32
   0.000000
 13
   5.510000
 23
   6.530000
 33
   0.000000
 62
254
  0
3DFACE
  8
CATTEXP
 10
   4.460000
 20
   5.870000
 30
   0.000000
 11
   5.350000
 21
   6.350000
 31
   0.000000
 12
   5.510000
 22
   6.350000
 32
   0.000000
 13
   5.510000
 23
   6.350000
 33
   0.000000
 62
 71
  0
3DFACE
  8
CATTEXP
 10
   5.350000
 20
   7.350000
 30
   0.000000
 11
   5.350000
 21
   6.350000
 31
   0.000000
 12
   4.460000
 22
   5.870000
 32
   0.000000
 13
   4.460000
 23
   5.870000
 33
   0.000000
 62
 71
  0
3DFACE
  8
CATTEXP
 10
   4.460000
 20
   7.350000
 30
   0.000000
 11
   5.350000
 21
   7.350000
 31
   0.000000
 12
   4.460000
 22
   5.870000
 32
   0.000000
 13
   4.460000
 23
   5.870000
 33
   0.000000
 62
 71
  0
3DFACE
  8
CATTEXP
 10
   3.200000
 20
   5.230000
 30
   0.000000
 11
   4.460000
 21
   5.870000
 31
   0.000000
 12
   5.510000
 22
   6.350000
 32
   0.000000
 13
   5.510000
 23
   6.350000
 33
   0.000000
 62
 71
  0
3DFACE
  8
CATTEXP
 10
   4.090000
 20
   5.870000
 30
   0.000000
 11
   4.460000
 21
   5.870000
 31
   0.000000
 12
   3.200000
 22
   5.230000
 32
   0.000000
 13
   3.200000
 23
   5.230000
 33
   0.000000
 62
 71
  0
3DFACE
  8
CATTEXP
 10
   4.090000
 20
   6.050000
 30
   0.000000
 11
   4.090000
 21
   5.870000
 31
   0.000000
 12
   3.200000
 22
   5.230000
 32
   0.000000
 13
   3.200000
 23
   5.230000
 33
   0.000000
 62
 71
  0
3DFACE
  8
CATTEXP
 10
   3.590000
 20
   5.870000
 30
   0.000000
 11
   4.090000
 21
   6.050000
 31
   0.000000
 12
   3.200000
 22
   5.230000
 32
   0.000000
 13
   3.200000
 23
   5.230000
 33
   0.000000
 62
 71
  0
3DFACE
  8
CATTEXP
 10
   3.590000
 20
   6.050000
 30
   0.000000
 11
   4.090000
 21
   6.050000
 31
   0.000000
 12
   3.590000
 22
   5.870000
 32
   0.000000
 13
   3.590000
 23
   5.870000
 33
   0.000000
 62
 71
  0
3DFACE
  8
CATTEXP
 10
   3.350000
 20
   5.730000
 30
   0.000000
 11
   3.590000
 21
   5.870000
 31
   0.000000
 12
   3.200000
 22
   5.230000
 32
   0.000000
 13
   3.200000
 23
   5.230000
 33
   0.000000
 62
 71
  0
3DFACE
  8
CATTEXP
 10
   3.350000
 20
   5.870000
 30
   0.000000
 11
   3.590000
 21
   5.870000
 31
   0.000000
 12
   3.350000
 22
   5.730000
 32
   0.000000
 13
   3.350000
 23
   5.730000
 33
   0.000000
 62
 71
  0
3DFACE
  8
CATTEXP
 10
   3.200000
 20
   5.730000
 30
   0.000000
 11
   3.350000
 21
   5.730000
 31
   0.000000
 12
   3.200000
 22
   5.230000
 32
   0.000000
 13
   3.200000
 23
   5.230000
 33
   0.000000
 62
 71
  0
3DFACE
  8
CATTEXP
 10
   3.350000
 20
   5.230000
 30
   0.000000
 11
   3.200000
 21
   5.230000
 31
   0.000000
 12
   5.510000
 22
   6.350000
 32
   0.000000
 13
   5.510000
 23
   6.350000
 33
   0.000000
 62
 71
  0
3DFACE
  8
CATTEXP
 10
   3.350000
 20
   5.100000
 30
   0.000000
 11
   3.350000
 21
   5.230000
 31
   0.000000
 12
   5.510000
 22
   6.350000
 32
   0.000000
 13
   5.510000
 23
   6.350000
 33
   0.000000
 62
 71
  0
3DFACE
  8
CATTEXP
 10
   3.590000
 20
   5.100000
 30
   0.000000
 11
   3.350000
 21
   5.100000
 31
   0.000000
 12
   5.510000
 22
   6.350000
 32
   0.000000
 13
   5.510000
 23
   6.350000
 33
   0.000000
 62
 71
  0
3DFACE
  8
CATTEXP
 10
   3.590000
 20
   4.940000
 30
   0.000000
 11
   3.590000
 21
   5.100000
 31
   0.000000
 12
   5.510000
 22
   6.350000
 32
   0.000000
 13
   5.510000
 23
   6.350000
 33
   0.000000
 62
 71
  0
3DFACE
  8
CATTEXP
 10
   4.110000
 20
   5.100000
 30
   0.000000
 11
   3.590000
 21
   4.940000
 31
   0.000000
 12
   5.510000
 22
   6.350000
 32
   0.000000
 13
   5.510000
 23
   6.350000
 33
   0.000000
 62
 71
  0
3DFACE
  8
CATTEXP
 10
   4.110000
 20
   4.940000
 30
   0.000000
 11
   3.590000
 21
   4.940000
 31
   0.000000
 12
   4.110000
 22
   5.100000
 32
   0.000000
 13
   4.110000
 23
   5.100000
 33
   0.000000
 62
 71
  0
3DFACE
  8
CATTEXP
 10
   5.350000
 20
   5.840000
 30
   0.000000
 11
   4.110000
 21
   5.100000
 31
   0.000000
 12
   5.510000
 22
   6.350000
 32
   0.000000
 13
   5.510000
 23
   6.350000
 33
   0.000000
 62
 71
  0
3DFACE
  8
CATTEXP
 10
   5.350000
 20
   5.100000
 30
   0.000000
 11
   4.110000
 21
   5.100000
 31
   0.000000
 12
   5.350000
 22
   5.840000
 32
   0.000000
 13
   5.350000
 23
   5.840000
 33
   0.000000
 62
 71
  0
3DFACE
  8
CATTEXP
 10
   5.510000
 20
   5.840000
 30
   0.000000
 11
   5.350000
 21
   5.840000
 31
   0.000000
 12
   5.510000
 22
   6.350000
 32
   0.000000
 13
   5.510000
 23
   6.350000
 33
   0.000000
 62
 71
  0
3DFACE
  8
CATTEXP
 10
   4.070000
 20
   6.750000
 30
   0.000000
 11
   4.290000
 21
   6.050000
 31
   0.000000
 12
   3.350000
 22
   6.050000
 32
   0.000000
 13
   3.350000
 23
   6.050000
 33
   0.000000
 62
254
  0
3DFACE
  8
CATTEXP
 10
   4.290000
 20
   7.350000
 30
   0.000000
 11
   4.290000
 21
   6.050000
 31
   0.000000
 12
   4.070000
 22
   6.750000
 32
   0.000000
 13
   4.070000
 23
   6.750000
 33
   0.000000
 62
254
  0
3DFACE
  8
CATTEXP
 10
   4.070000
 20
   7.350000
 30
   0.000000
 11
   4.290000
 21
   7.350000
 31
   0.000000
 12
   4.070000
 22
   6.750000
 32
   0.000000
 13
   4.070000
 23
   6.750000
 33
   0.000000
 62
254
  0
3DFACE
  8
CATTEXP
 10
   3.640000
 20
   6.750000
 30
   0.000000
 11
   4.070000
 21
   6.750000
 31
   0.000000
 12
   3.350000
 22
   6.050000
 32
   0.000000
 13
   3.350000
 23
   6.050000
 33
   0.000000
 62
254
  0
3DFACE
  8
CATTEXP
 10
   3.640000
 20
   7.350000
 30
   0.000000
 11
   3.640000
 21
   6.750000
 31
   0.000000
 12
   3.350000
 22
   6.050000
 32
   0.000000
 13
   3.350000
 23
   6.050000
 33
   0.000000
 62
254
  0
3DFACE
  8
CATTEXP
 10
   3.350000
 20
   7.350000
 30
   0.000000
 11
   3.640000
 21
   7.350000
 31
   0.000000
 12
   3.350000
 22
   6.050000
 32
   0.000000
 13
   3.350000
 23
   6.050000
 33
   0.000000
 62
254
  0
3DFACE
  8
CATTEXP
 10
   3.090000
 20
   7.350000
 30
   0.000000
 11
   3.200000
 21
   7.350000
 31
   0.000000
 12
   3.200000
 22
   5.100000
 32
   0.000000
 13
   3.200000
 23
   5.100000
 33
   0.000000
 62
 41
  0
3DFACE
  8
CATTEXP
 10
   3.090000
 20
   7.030000
 30
   0.000000
 11
   3.090000
 21
   7.350000
 31
   0.000000
 12
   3.200000
 22
   5.100000
 32
   0.000000
 13
   3.200000
 23
   5.100000
 33
   0.000000
 62
 41
  0
3DFACE
  8
CATTEXP
 10
   2.750000
 20
   7.030000
 30
   0.000000
 11
   3.090000
 21
   7.030000
 31
   0.000000
 12
   3.200000
 22
   5.100000
 32
   0.000000
 13
   3.200000
 23
   5.100000
 33
   0.000000
 62
 41
  0
3DFACE
  8
CATTEXP
 10
   2.650000
 20
   7.350000
 30
   0.000000
 11
   2.750000
 21
   7.030000
 31
   0.000000
 12
   3.200000
 22
   5.100000
 32
   0.000000
 13
   3.200000
 23
   5.100000
 33
   0.000000
 62
 41
  0
3DFACE
  8
CATTEXP
 10
   2.750000
 20
   7.350000
 30
   0.000000
 11
   2.750000
 21
   7.030000
 31
   0.000000
 12
   2.650000
 22
   7.350000
 32
   0.000000
 13
   2.650000
 23
   7.350000
 33
   0.000000
 62
 41
  0
3DFACE
  8
CATTEXP
 10
   2.650000
 20
   5.930000
 30
   0.000000
 11
   2.650000
 21
   7.350000
 31
   0.000000
 12
   3.200000
 22
   5.100000
 32
   0.000000
 13
   3.200000
 23
   5.100000
 33
   0.000000
 62
 41
  0
3DFACE
  8
CATTEXP
 10
   0.840000
 20
   5.930000
 30
   0.000000
 11
   2.650000
 21
   5.930000
 31
   0.000000
 12
   3.200000
 22
   5.100000
 32
   0.000000
 13
   3.200000
 23
   5.100000
 33
   0.000000
 62
 41
  0
3DFACE
  8
CATTEXP
 10
   1.120000
 20
   5.530000
 30
   0.000000
 11
   0.840000
 21
   5.930000
 31
   0.000000
 12
   3.200000
 22
   5.100000
 32
   0.000000
 13
   3.200000
 23
   5.100000
 33
   0.000000
 62
 41
  0
3DFACE
  8
CATTEXP
 10
   0.310000
 20
   5.530000
 30
   0.000000
 11
   0.840000
 21
   5.930000
 31
   0.000000
 12
   1.120000
 22
   5.530000
 32
   0.000000
 13
   1.120000
 23
   5.530000
 33
   0.000000
 62
 41
  0
3DFACE
  8
CATTEXP
 10
   0.840000
 20
   7.350000
 30
   0.000000
 11
   0.840000
 21
   5.930000
 31
   0.000000
 12
   0.310000
 22
   5.530000
 32
   0.000000
 13
   0.310000
 23
   5.530000
 33
   0.000000
 62
 41
  0
3DFACE
  8
CATTEXP
 10
   0.740000
 20
   7.030000
 30
   0.000000
 11
   0.840000
 21
   7.350000
 31
   0.000000
 12
   0.310000
 22
   5.530000
 32
   0.000000
 13
   0.310000
 23
   5.530000
 33
   0.000000
 62
 41
  0
3DFACE
  8
CATTEXP
 10
   0.740000
 20
   7.350000
 30
   0.000000
 11
   0.840000
 21
   7.350000
 31
   0.000000
 12
   0.740000
 22
   7.030000
 32
   0.000000
 13
   0.740000
 23
   7.030000
 33
   0.000000
 62
 41
  0
3DFACE
  8
CATTEXP
 10
   0.390000
 20
   7.030000
 30
   0.000000
 11
   0.740000
 21
   7.030000
 31
   0.000000
 12
   0.310000
 22
   5.530000
 32
   0.000000
 13
   0.310000
 23
   5.530000
 33
   0.000000
 62
 41
  0
3DFACE
  8
CATTEXP
 10
   0.390000
 20
   7.350000
 30
   0.000000
 11
   0.390000
 21
   7.030000
 31
   0.000000
 12
   0.310000
 22
   5.530000
 32
   0.000000
 13
   0.310000
 23
   5.530000
 33
   0.000000
 62
 41
  0
3DFACE
  8
CATTEXP
 10
   0.310000
 20
   7.350000
 30
   0.000000
 11
   0.390000
 21
   7.350000
 31
   0.000000
 12
   0.310000
 22
   5.530000
 32
   0.000000
 13
   0.310000
 23
   5.530000
 33
   0.000000
 62
 41
  0
3DFACE
  8
CATTEXP
 10
   1.120000
 20
   5.100000
 30
   0.000000
 11
   1.120000
 21
   5.530000
 31
   0.000000
 12
   3.200000
 22
   5.100000
 32
   0.000000
 13
   3.200000
 23
   5.100000
 33
   0.000000
 62
 41
  0
3DFACE
  8
CATTEXP
 10
   0.310000
 20
   7.350000
 30
   1.870000
 11
   0.310000
 21
   5.530000
 31
   1.800000
 12
   0.310000
 22
   5.100000
 32
   1.800000
 13
   0.310000
 23
   5.100000
 33
   1.800000
 62
253
  0
3DFACE
  8
CATTEXP
 10
   0.310000
 20
   5.530000
 30
   0.000000
 11
   0.310000
 21
   5.530000
 31
   1.800000
 12
   0.310000
 22
   7.350000
 32
   1.870000
 13
   0.310000
 23
   7.350000
 33
   1.870000
 62
253
  0
3DFACE
  8
CATTEXP
 10
   0.310000
 20
   7.350000
 30
   0.000000
 11
   0.310000
 21
   5.530000
 31
   0.000000
 12
   0.310000
 22
   7.350000
 32
   1.870000
 13
   0.310000
 23
   7.350000
 33
   1.870000
 62
253
  0
3DFACE
  8
CATTEXP
 10
   0.310000
 20
   5.100000
 30
   1.870000
 11
   0.310000
 21
   7.350000
 31
   1.870000
 12
   0.310000
 22
   5.100000
 32
   1.800000
 13
   0.310000
 23
   5.100000
 33
   1.800000
 62
253
  0
3DFACE
  8
CATTEXP
 10
   0.310000
 20
   5.960000
 30
   0.950000
 11
   0.310000
 21
   5.960000
 31
   1.550000
 12
   0.310000
 22
   6.560000
 32
   1.550000
 13
   0.310000
 23
   6.560000
 33
   0.950000
 62
253
  0
3DFACE
  8
CATTEXP
 10
   0.310000
 20
   7.350000
 30
   1.870000
 11
   0.310000
 21
   5.530000
 31
   1.800000
 12
   0.310000
 22
   5.100000
 32
   1.800000
 13
   0.310000
 23
   5.100000
 33
   1.800000
 62
 40
  0
3DFACE
  8
CATTEXP
 10
   0.310000
 20
   5.530000
 30
   0.000000
 11
   0.310000
 21
   5.530000
 31
   1.800000
 12
   0.310000
 22
   7.350000
 32
   1.870000
 13
   0.310000
 23
   7.350000
 33
   1.870000
 62
 40
  0
3DFACE
  8
CATTEXP
 10
   0.310000
 20
   7.350000
 30
   0.000000
 11
   0.310000
 21
   5.530000
 31
   0.000000
 12
   0.310000
 22
   7.350000
 32
   1.870000
 13
   0.310000
 23
   7.350000
 33
   1.870000
 62
 40
  0
3DFACE
  8
CATTEXP
 10
   0.310000
 20
   5.100000
 30
   1.870000
 11
   0.310000
 21
   7.350000
 31
   1.870000
 12
   0.310000
 22
   5.100000
 32
   1.800000
 13
   0.310000
 23
   5.100000
 33
   1.800000
 62
 40
  0
3DFACE
  8
CATTEXP
 10
   5.510000
 20
   6.530000
 30
   0.000000
 11
   5.510000
 21
   7.350000
 31
   0.000000
 12
   7.180000
 22
   7.350000
 32
   0.000000
 13
   7.180000
 23
   6.530000
 33
   0.000000
 62
254
  0
3DFACE
  8
CATTEXP
 10
   2.760000
 20
   0.160000
 30
   0.000000
 11
   0.310000
 21
   0.160000
 31
   0.000000
 12
   0.310000
 22
   1.580000
 32
   0.000000
 13
   0.310000
 23
   1.580000
 33
   0.000000
 62
231
  0
3DFACE
  8
CATTEXP
 10
   2.760000
 20
   0.950000
 30
   0.000000
 11
   2.760000
 21
   0.160000
 31
   0.000000
 12
   0.310000
 22
   1.580000
 32
   0.000000
 13
   0.310000
 23
   1.580000
 33
   0.000000
 62
231
  0
3DFACE
  8
CATTEXP
 10
   3.820000
 20
   0.950000
 30
   0.000000
 11
   2.760000
 21
   0.950000
 31
   0.000000
 12
   0.310000
 22
   1.580000
 32
   0.000000
 13
   0.310000
 23
   1.580000
 33
   0.000000
 62
231
  0
3DFACE
  8
CATTEXP
 10
   0.640000
 20
   1.580000
 30
   0.000000
 11
   3.820000
 21
   0.950000
 31
   0.000000
 12
   0.310000
 22
   1.580000
 32
   0.000000
 13
   0.310000
 23
   1.580000
 33
   0.000000
 62
231
  0
3DFACE
  8
CATTEXP
 10
   1.460000
 20
   1.590000
 30
   0.000000
 11
   3.820000
 21
   0.950000
 31
   0.000000
 12
   0.640000
 22
   1.580000
 32
   0.000000
 13
   0.640000
 23
   1.580000
 33
   0.000000
 62
231
  0
3DFACE
  8
CATTEXP
 10
   5.430000
 20
   1.810000
 30
   0.000000
 11
   3.820000
 21
   0.950000
 31
   0.000000
 12
   1.460000
 22
   1.590000
 32
   0.000000
 13
   1.460000
 23
   1.590000
 33
   0.000000
 62
231
  0
3DFACE
  8
CATTEXP
 10
   3.820000
 20
   0.150000
 30
   0.000000
 11
   3.820000
 21
   0.950000
 31
   0.000000
 12
   5.430000
 22
   1.810000
 32
   0.000000
 13
   5.430000
 23
   1.810000
 33
   0.000000
 62
231
  0
3DFACE
  8
CATTEXP
 10
   5.430000
 20
   0.150000
 30
   0.000000
 11
   3.820000
 21
   0.150000
 31
   0.000000
 12
   5.430000
 22
   1.810000
 32
   0.000000
 13
   5.430000
 23
   1.810000
 33
   0.000000
 62
231
  0
3DFACE
  8
CATTEXP
 10
   2.960000
 20
   1.880000
 30
   0.000000
 11
   5.430000
 21
   1.810000
 31
   0.000000
 12
   1.460000
 22
   1.590000
 32
   0.000000
 13
   1.460000
 23
   1.590000
 33
   0.000000
 62
231
  0
3DFACE
  8
CATTEXP
 10
   7.180000
 20
   1.810000
 30
   0.000000
 11
   5.430000
 21
   1.810000
 31
   0.000000
 12
   2.960000
 22
   1.880000
 32
   0.000000
 13
   2.960000
 23
   1.880000
 33
   0.000000
 62
231
  0
3DFACE
  8
CATTEXP
 10
   7.180000
 20
   4.340000
 30
   0.000000
 11
   7.180000
 21
   1.810000
 31
   0.000000
 12
   2.960000
 22
   1.880000
 32
   0.000000
 13
   2.960000
 23
   1.880000
 33
   0.000000
 62
231
  0
3DFACE
  8
CATTEXP
 10
   4.530000
 20
   4.340000
 30
   0.000000
 11
   7.180000
 21
   4.340000
 31
   0.000000
 12
   2.960000
 22
   1.880000
 32
   0.000000
 13
   2.960000
 23
   1.880000
 33
   0.000000
 62
231
  0
3DFACE
  8
CATTEXP
 10
   4.530000
 20
   4.940000
 30
   0.000000
 11
   4.530000
 21
   4.340000
 31
   0.000000
 12
   2.960000
 22
   1.880000
 32
   0.000000
 13
   2.960000
 23
   1.880000
 33
   0.000000
 62
231
  0
3DFACE
  8
CATTEXP
 10
   2.960000
 20
   3.880000
 30
   0.000000
 11
   4.530000
 21
   4.940000
 31
   0.000000
 12
   2.960000
 22
   1.880000
 32
   0.000000
 13
   2.960000
 23
   1.880000
 33
   0.000000
 62
231
  0
3DFACE
  8
CATTEXP
 10
   2.560000
 20
   4.940000
 30
   0.000000
 11
   4.530000
 21
   4.940000
 31
   0.000000
 12
   2.960000
 22
   3.880000
 32
   0.000000
 13
   2.960000
 23
   3.880000
 33
   0.000000
 62
231
  0
3DFACE
  8
CATTEXP
 10
   2.560000
 20
   3.880000
 30
   0.000000
 11
   2.560000
 21
   4.940000
 31
   0.000000
 12
   2.960000
 22
   3.880000
 32
   0.000000
 13
   2.960000
 23
   3.880000
 33
   0.000000
 62
231
  0
3DFACE
  8
CATTEXP
 10
   1.460000
 20
   1.880000
 30
   0.000000
 11
   2.960000
 21
   1.880000
 31
   0.000000
 12
   1.460000
 22
   1.590000
 32
   0.000000
 13
   1.460000
 23
   1.590000
 33
   0.000000
 62
231
  0
3DFACE
  8
CATTEXP
 10
   4.070000
 20
   7.350000
 30
   0.450000
 11
   4.290000
 21
   7.350000
 31
   1.870000
 12
   4.290000
 22
   7.350000
 32
   0.000000
 13
   4.290000
 23
   7.350000
 33
   0.000000
 62
254
  0
3DFACE
  8
CATTEXP
 10
   3.350000
 20
   7.350000
 30
   1.870000
 11
   4.290000
 21
   7.350000
 31
   1.870000
 12
   4.070000
 22
   7.350000
 32
   0.450000
 13
   4.070000
 23
   7.350000
 33
   0.450000
 62
254
  0
3DFACE
  8
CATTEXP
 10
   3.640000
 20
   7.350000
 30
   0.450000
 11
   3.350000
 21
   7.350000
 31
   1.870000
 12
   4.070000
 22
   7.350000
 32
   0.450000
 13
   4.070000
 23
   7.350000
 33
   0.450000
 62
254
  0
3DFACE
  8
CATTEXP
 10
   3.350000
 20
   7.350000
 30
   0.000000
 11
   3.350000
 21
   7.350000
 31
   1.870000
 12
   3.640000
 22
   7.350000
 32
   0.450000
 13
   3.640000
 23
   7.350000
 33
   0.450000
 62
254
  0
3DFACE
  8
CATTEXP
 10
   3.640000
 20
   7.350000
 30
   0.000000
 11
   3.350000
 21
   7.350000
 31
   0.000000
 12
   3.640000
 22
   7.350000
 32
   0.450000
 13
   3.640000
 23
   7.350000
 33
   0.450000
 62
254
  0
3DFACE
  8
CATTEXP
 10
   4.070000
 20
   7.350000
 30
   0.000000
 11
   4.070000
 21
   7.350000
 31
   0.450000
 12
   4.290000
 22
   7.350000
 32
   0.000000
 13
   4.290000
 23
   7.350000
 33
   0.000000
 62
254
  0
3DFACE
  8
CATTEXP
 10
   5.430000
 20
   0.150000
 30
   0.000000
 11
   5.430000
 21
   0.150000
 31
   1.870000
 12
   3.820000
 22
   0.150000
 32
   1.870000
 13
   3.820000
 23
   0.150000
 33
   0.000000
 62
 40
  0
3DFACE
  8
CATTEXP
 10
   4.460000
 20
   7.350000
 30
   1.870000
 11
   4.650000
 21
   7.350000
 31
   1.570000
 12
   4.650000
 22
   7.350000
 32
   0.000000
 13
   4.650000
 23
   7.350000
 33
   0.000000
 62
 40
  0
3DFACE
  8
CATTEXP
 10
   5.170000
 20
   7.350000
 30
   1.570000
 11
   4.650000
 21
   7.350000
 31
   1.570000
 12
   4.460000
 22
   7.350000
 32
   1.870000
 13
   4.460000
 23
   7.350000
 33
   1.870000
 62
 40
  0
3DFACE
  8
CATTEXP
 10
   5.350000
 20
   7.350000
 30
   1.870000
 11
   5.170000
 21
   7.350000
 31
   1.570000
 12
   4.460000
 22
   7.350000
 32
   1.870000
 13
   4.460000
 23
   7.350000
 33
   1.870000
 62
 40
  0
3DFACE
  8
CATTEXP
 10
   5.170000
 20
   7.350000
 30
   0.000000
 11
   5.170000
 21
   7.350000
 31
   1.570000
 12
   5.350000
 22
   7.350000
 32
   1.870000
 13
   5.350000
 23
   7.350000
 33
   1.870000
 62
 40
  0
3DFACE
  8
CATTEXP
 10
   5.350000
 20
   7.350000
 30
   0.000000
 11
   5.170000
 21
   7.350000
 31
   0.000000
 12
   5.350000
 22
   7.350000
 32
   1.870000
 13
   5.350000
 23
   7.350000
 33
   1.870000
 62
 40
  0
3DFACE
  8
CATTEXP
 10
   4.460000
 20
   7.350000
 30
   0.000000
 11
   4.460000
 21
   7.350000
 31
   1.870000
 12
   4.650000
 22
   7.350000
 32
   0.000000
 13
   4.650000
 23
   7.350000
 33
   0.000000
 62
 40
  0
3DFACE
  8
CATTEXP
 10
   3.090000
 20
   7.350000
 30
   0.400000
 11
   3.200000
 21
   7.350000
 31
   1.870000
 12
   3.200000
 22
   7.350000
 32
   0.000000
 13
   3.200000
 23
   7.350000
 33
   0.000000
 62
  3
  0
3DFACE
  8
CATTEXP
 10
   0.310000
 20
   7.350000
 30
   1.870000
 11
   3.200000
 21
   7.350000
 31
   1.870000
 12
   3.090000
 22
   7.350000
 32
   0.400000
 13
   3.090000
 23
   7.350000
 33
   0.400000
 62
  3
  0
3DFACE
  8
CATTEXP
 10
   0.390000
 20
   7.350000
 30
   0.400000
 11
   0.310000
 21
   7.350000
 31
   1.870000
 12
   3.090000
 22
   7.350000
 32
   0.400000
 13
   3.090000
 23
   7.350000
 33
   0.400000
 62
  3
  0
3DFACE
  8
CATTEXP
 10
   0.310000
 20
   7.350000
 30
   0.000000
 11
   0.310000
 21
   7.350000
 31
   1.870000
 12
   0.390000
 22
   7.350000
 32
   0.400000
 13
   0.390000
 23
   7.350000
 33
   0.400000
 62
  3
  0
3DFACE
  8
CATTEXP
 10
   0.390000
 20
   7.350000
 30
   0.000000
 11
   0.310000
 21
   7.350000
 31
   0.000000
 12
   0.390000
 22
   7.350000
 32
   0.400000
 13
   0.390000
 23
   7.350000
 33
   0.400000
 62
  3
  0
3DFACE
  8
CATTEXP
 10
   0.840000
 20
   7.350000
 30
   0.300000
 11
   0.740000
 21
   7.350000
 31
   0.400000
 12
   2.750000
 22
   7.350000
 32
   0.400000
 13
   2.750000
 23
   7.350000
 33
   0.400000
 62
  3
  0
3DFACE
  8
CATTEXP
 10
   0.740000
 20
   7.350000
 30
   0.000000
 11
   0.740000
 21
   7.350000
 31
   0.400000
 12
   0.840000
 22
   7.350000
 32
   0.300000
 13
   0.840000
 23
   7.350000
 33
   0.300000
 62
  3
  0
3DFACE
  8
CATTEXP
 10
   0.840000
 20
   7.350000
 30
   0.000000
 11
   0.740000
 21
   7.350000
 31
   0.000000
 12
   0.840000
 22
   7.350000
 32
   0.300000
 13
   0.840000
 23
   7.350000
 33
   0.300000
 62
  3
  0
3DFACE
  8
CATTEXP
 10
   2.650000
 20
   7.350000
 30
   0.300000
 11
   0.840000
 21
   7.350000
 31
   0.300000
 12
   2.750000
 22
   7.350000
 32
   0.400000
 13
   2.750000
 23
   7.350000
 33
   0.400000
 62
  3
  0
3DFACE
  8
CATTEXP
 10
   2.650000
 20
   7.350000
 30
   0.000000
 11
   2.650000
 21
   7.350000
 31
   0.300000
 12
   2.750000
 22
   7.350000
 32
   0.400000
 13
   2.750000
 23
   7.350000
 33
   0.400000
 62
  3
  0
3DFACE
  8
CATTEXP
 10
   2.750000
 20
   7.350000
 30
   0.000000
 11
   2.650000
 21
   7.350000
 31
   0.000000
 12
   2.750000
 22
   7.350000
 32
   0.400000
 13
   2.750000
 23
   7.350000
 33
   0.400000
 62
  3
  0
3DFACE
  8
CATTEXP
 10
   3.090000
 20
   7.350000
 30
   0.000000
 11
   3.090000
 21
   7.350000
 31
   0.400000
 12
   3.200000
 22
   7.350000
 32
   0.000000
 13
   3.200000
 23
   7.350000
 33
   0.000000
 62
  3
  0
3DFACE
  8
CATTEXP
 10
   2.200000
 20
   7.350000
 30
   1.470000
 11
   2.200000
 21
   7.350000
 31
   0.970000
 12
   1.200000
 22
   7.350000
 32
   0.970000
 13
   1.200000
 23
   7.350000
 33
   1.470000
 62
  3
  0
3DFACE
  8
CATTEXP
 10
   3.090000
 20
   7.350000
 30
   0.400000
 11
   3.200000
 21
   7.350000
 31
   1.870000
 12
   3.200000
 22
   7.350000
 32
   0.000000
 13
   3.200000
 23
   7.350000
 33
   0.000000
 62
 40
  0
3DFACE
  8
CATTEXP
 10
   0.310000
 20
   7.350000
 30
   1.870000
 11
   3.200000
 21
   7.350000
 31
   1.870000
 12
   3.090000
 22
   7.350000
 32
   0.400000
 13
   3.090000
 23
   7.350000
 33
   0.400000
 62
 40
  0
3DFACE
  8
CATTEXP
 10
   0.390000
 20
   7.350000
 30
   0.400000
 11
   0.310000
 21
   7.350000
 31
   1.870000
 12
   3.090000
 22
   7.350000
 32
   0.400000
 13
   3.090000
 23
   7.350000
 33
   0.400000
 62
 40
  0
3DFACE
  8
CATTEXP
 10
   0.310000
 20
   7.350000
 30
   0.000000
 11
   0.310000
 21
   7.350000
 31
   1.870000
 12
   0.390000
 22
   7.350000
 32
   0.400000
 13
   0.390000
 23
   7.350000
 33
   0.400000
 62
 40
  0
3DFACE
  8
CATTEXP
 10
   0.390000
 20
   7.350000
 30
   0.000000
 11
   0.310000
 21
   7.350000
 31
   0.000000
 12
   0.390000
 22
   7.350000
 32
   0.400000
 13
   0.390000
 23
   7.350000
 33
   0.400000
 62
 40
  0
3DFACE
  8
CATTEXP
 10
   0.840000
 20
   7.350000
 30
   0.300000
 11
   0.740000
 21
   7.350000
 31
   0.400000
 12
   2.750000
 22
   7.350000
 32
   0.400000
 13
   2.750000
 23
   7.350000
 33
   0.400000
 62
 40
  0
3DFACE
  8
CATTEXP
 10
   0.740000
 20
   7.350000
 30
   0.000000
 11
   0.740000
 21
   7.350000
 31
   0.400000
 12
   0.840000
 22
   7.350000
 32
   0.300000
 13
   0.840000
 23
   7.350000
 33
   0.300000
 62
 40
  0
3DFACE
  8
CATTEXP
 10
   0.840000
 20
   7.350000
 30
   0.000000
 11
   0.740000
 21
   7.350000
 31
   0.000000
 12
   0.840000
 22
   7.350000
 32
   0.300000
 13
   0.840000
 23
   7.350000
 33
   0.300000
 62
 40
  0
3DFACE
  8
CATTEXP
 10
   2.650000
 20
   7.350000
 30
   0.300000
 11
   0.840000
 21
   7.350000
 31
   0.300000
 12
   2.750000
 22
   7.350000
 32
   0.400000
 13
   2.750000
 23
   7.350000
 33
   0.400000
 62
 40
  0
3DFACE
  8
CATTEXP
 10
   2.650000
 20
   7.350000
 30
   0.000000
 11
   2.650000
 21
   7.350000
 31
   0.300000
 12
   2.750000
 22
   7.350000
 32
   0.400000
 13
   2.750000
 23
   7.350000
 33
   0.400000
 62
 40
  0
3DFACE
  8
CATTEXP
 10
   2.750000
 20
   7.350000
 30
   0.000000
 11
   2.650000
 21
   7.350000
 31
   0.000000
 12
   2.750000
 22
   7.350000
 32
   0.400000
 13
   2.750000
 23
   7.350000
 33
   0.400000
 62
 40
  0
3DFACE
  8
CATTEXP
 10
   3.090000
 20
   7.350000
 30
   0.000000
 11
   3.090000
 21
   7.350000
 31
   0.400000
 12
   3.200000
 22
   7.350000
 32
   0.000000
 13
   3.200000
 23
   7.350000
 33
   0.000000
 62
 40
  0
3DFACE
  8
CATTEXP
 10
   4.650000
 20
   7.350000
 30
   0.000000
 11
   4.650000
 21
   7.350000
 31
   1.570000
 12
   5.170000
 22
   7.350000
 32
   1.570000
 13
   5.170000
 23
   7.350000
 33
   0.000000
 62
111
  0
3DFACE
  8
CATTEXP
 10
   5.510000
 20
   7.350000
 30
   0.000000
 11
   5.510000
 21
   7.350000
 31
   1.870000
 12
   7.180000
 22
   7.350000
 32
   1.870000
 13
   7.180000
 23
   7.350000
 33
   0.000000
 62
254
  0
3DFACE
  8
CATTEXP
 10
   7.180000
 20
   7.350000
 30
   0.000000
 11
   7.180000
 21
   7.350000
 31
   1.870000
 12
   7.180000
 22
   5.100000
 32
   1.870000
 13
   7.180000
 23
   5.100000
 33
   1.870000
 62
253
  0
3DFACE
  8
CATTEXP
 10
   7.180000
 20
   5.630000
 30
   0.830000
 11
   7.180000
 21
   7.350000
 31
   0.000000
 12
   7.180000
 22
   5.100000
 32
   1.870000
 13
   7.180000
 23
   5.100000
 33
   1.870000
 62
253
  0
3DFACE
  8
CATTEXP
 10
   7.180000
 20
   5.630000
 30
   0.000000
 11
   7.180000
 21
   7.350000
 31
   0.000000
 12
   7.180000
 22
   5.630000
 32
   0.830000
 13
   7.180000
 23
   5.630000
 33
   0.830000
 62
253
  0
3DFACE
  8
CATTEXP
 10
   7.180000
 20
   5.100000
 30
   0.830000
 11
   7.180000
 21
   5.630000
 31
   0.830000
 12
   7.180000
 22
   5.100000
 32
   1.870000
 13
   7.180000
 23
   5.100000
 33
   1.870000
 62
253
  0
3DFACE
  8
CATTEXP
 10
   7.180000
 20
   6.420000
 30
   0.950000
 11
   7.180000
 21
   6.420000
 31
   1.550000
 12
   7.180000
 22
   5.820000
 32
   1.550000
 13
   7.180000
 23
   5.820000
 33
   0.950000
 62
253
  0
3DFACE
  8
CATTEXP
 10
   7.180000
 20
   7.350000
 30
   0.000000
 11
   7.180000
 21
   7.350000
 31
   1.870000
 12
   7.180000
 22
   5.100000
 32
   1.870000
 13
   7.180000
 23
   5.100000
 33
   1.870000
 62
254
  0
3DFACE
  8
CATTEXP
 10
   7.180000
 20
   5.630000
 30
   0.830000
 11
   7.180000
 21
   7.350000
 31
   0.000000
 12
   7.180000
 22
   5.100000
 32
   1.870000
 13
   7.180000
 23
   5.100000
 33
   1.870000
 62
254
  0
3DFACE
  8
CATTEXP
 10
   7.180000
 20
   5.630000
 30
   0.000000
 11
   7.180000
 21
   7.350000
 31
   0.000000
 12
   7.180000
 22
   5.630000
 32
   0.830000
 13
   7.180000
 23
   5.630000
 33
   0.830000
 62
254
  0
3DFACE
  8
CATTEXP
 10
   7.180000
 20
   5.100000
 30
   0.830000
 11
   7.180000
 21
   5.630000
 31
   0.830000
 12
   7.180000
 22
   5.100000
 32
   1.870000
 13
   7.180000
 23
   5.100000
 33
   1.870000
 62
254
  0
3DFACE
  8
CATTEXP
 10
   1.820000
 20
   2.470000
 30
   0.000000
 11
   1.460000
 21
   2.470000
 31
   0.000000
 12
   1.460000
 22
   3.880000
 32
   0.000000
 13
   1.460000
 23
   3.880000
 33
   0.000000
 62
 21
  0
3DFACE
  8
CATTEXP
 10
   1.820000
 20
   3.420000
 30
   0.000000
 11
   1.820000
 21
   2.470000
 31
   0.000000
 12
   1.460000
 22
   3.880000
 32
   0.000000
 13
   1.460000
 23
   3.880000
 33
   0.000000
 62
 21
  0
3DFACE
  8
CATTEXP
 10
   2.560000
 20
   3.420000
 30
   0.000000
 11
   1.820000
 21
   3.420000
 31
   0.000000
 12
   1.460000
 22
   3.880000
 32
   0.000000
 13
   1.460000
 23
   3.880000
 33
   0.000000
 62
 21
  0
3DFACE
  8
CATTEXP
 10
   2.560000
 20
   3.880000
 30
   0.000000
 11
   2.560000
 21
   3.420000
 31
   0.000000
 12
   1.460000
 22
   3.880000
 32
   0.000000
 13
   1.460000
 23
   3.880000
 33
   0.000000
 62
 21
  0
3DFACE
  8
CATTEXP
 10
   2.960000
 20
   1.880000
 30
   0.000000
 11
   1.460000
 21
   1.880000
 31
   0.000000
 12
   1.460000
 22
   2.470000
 32
   0.000000
 13
   1.460000
 23
   2.470000
 33
   0.000000
 62
 21
  0
3DFACE
  8
CATTEXP
 10
   2.560000
 20
   2.470000
 30
   0.000000
 11
   2.960000
 21
   1.880000
 31
   0.000000
 12
   1.460000
 22
   2.470000
 32
   0.000000
 13
   1.460000
 23
   2.470000
 33
   0.000000
 62
 21
  0
3DFACE
  8
CATTEXP
 10
   2.960000
 20
   3.880000
 30
   0.000000
 11
   2.960000
 21
   1.880000
 31
   0.000000
 12
   2.560000
 22
   2.470000
 32
   0.000000
 13
   2.560000
 23
   2.470000
 33
   0.000000
 62
 21
  0
3DFACE
  8
CATTEXP
 10
   2.560000
 20
   3.880000
 30
   0.000000
 11
   2.960000
 21
   3.880000
 31
   0.000000
 12
   2.560000
 22
   2.470000
 32
   0.000000
 13
   2.560000
 23
   2.470000
 33
   0.000000
 62
 21
  0
3DFACE
  8
CATTEXP
 10
   0.310000
 20
   5.100000
 30
   1.870000
 11
   3.200000
 21
   5.100000
 31
   1.870000
 12
   3.200000
 22
   7.350000
 32
   1.870000
 13
   3.200000
 23
   7.350000
 33
   1.870000
 62
 40
  0
3DFACE
  8
CATTEXP
 10
   0.310000
 20
   7.350000
 30
   1.870000
 11
   0.310000
 21
   5.100000
 31
   1.870000
 12
   3.200000
 22
   7.350000
 32
   1.870000
 13
   3.200000
 23
   7.350000
 33
   1.870000
 62
 40
  0
3DFACE
  8
CATTEXP
 10
   5.510000
 20
   5.100000
 30
   1.870000
 11
   7.180000
 21
   5.100000
 31
   1.870000
 12
   7.180000
 22
   7.350000
 32
   1.870000
 13
   7.180000
 23
   7.350000
 33
   1.870000
 62
 40
  0
3DFACE
  8
CATTEXP
 10
   5.510000
 20
   7.350000
 30
   1.870000
 11
   5.510000
 21
   5.100000
 31
   1.870000
 12
   7.180000
 22
   7.350000
 32
   1.870000
 13
   7.180000
 23
   7.350000
 33
   1.870000
 62
 40
  0
3DFACE
  8
CATTEXP
 10
   3.350000
 20
   7.350000
 30
   1.870000
 11
   3.350000
 21
   6.050000
 31
   1.870000
 12
   4.290000
 22
   6.050000
 32
   1.870000
 13
   4.290000
 23
   7.350000
 33
   1.870000
 62
 40
  0
3DFACE
  8
CATTEXP
 10
   5.430000
 20
   1.810000
 30
   1.870000
 11
   7.180000
 21
   1.810000
 31
   1.870000
 12
   7.180000
 22
   4.940000
 32
   1.870000
 13
   7.180000
 23
   4.940000
 33
   1.870000
 62
 40
  0
3DFACE
  8
CATTEXP
 10
   3.820000
 20
   0.150000
 30
   1.870000
 11
   5.430000
 21
   1.810000
 31
   1.870000
 12
   7.180000
 22
   4.940000
 32
   1.870000
 13
   7.180000
 23
   4.940000
 33
   1.870000
 62
 40
  0
3DFACE
  8
CATTEXP
 10
   5.430000
 20
   0.150000
 30
   1.870000
 11
   5.430000
 21
   1.810000
 31
   1.870000
 12
   3.820000
 22
   0.150000
 32
   1.870000
 13
   3.820000
 23
   0.150000
 33
   1.870000
 62
 40
  0
3DFACE
  8
CATTEXP
 10
   3.820000
 20
   0.950000
 30
   1.870000
 11
   3.820000
 21
   0.150000
 31
   1.870000
 12
   7.180000
 22
   4.940000
 32
   1.870000
 13
   7.180000
 23
   4.940000
 33
   1.870000
 62
 40
  0
3DFACE
  8
CATTEXP
 10
   2.760000
 20
   0.950000
 30
   1.870000
 11
   3.820000
 21
   0.950000
 31
   1.870000
 12
   7.180000
 22
   4.940000
 32
   1.870000
 13
   7.180000
 23
   4.940000
 33
   1.870000
 62
 40
  0
3DFACE
  8
CATTEXP
 10
   0.310000
 20
   0.160000
 30
   1.870000
 11
   2.760000
 21
   0.950000
 31
   1.870000
 12
   7.180000
 22
   4.940000
 32
   1.870000
 13
   7.180000
 23
   4.940000
 33
   1.870000
 62
 40
  0
3DFACE
  8
CATTEXP
 10
   2.760000
 20
   0.160000
 30
   1.870000
 11
   2.760000
 21
   0.950000
 31
   1.870000
 12
   0.310000
 22
   0.160000
 32
   1.870000
 13
   0.310000
 23
   0.160000
 33
   1.870000
 62
 40
  0
3DFACE
  8
CATTEXP
 10
   0.310000
 20
   4.940000
 30
   1.870000
 11
   0.310000
 21
   0.160000
 31
   1.870000
 12
   7.180000
 22
   4.940000
 32
   1.870000
 13
   7.180000
 23
   4.940000
 33
   1.870000
 62
 40
  0
3DFACE
  8
CATTEXP
 10
   4.460000
 20
   5.870000
 30
   1.870000
 11
   5.350000
 21
   5.100000
 31
   1.870000
 12
   5.350000
 22
   7.350000
 32
   1.870000
 13
   5.350000
 23
   7.350000
 33
   1.870000
 62
 40
  0
3DFACE
  8
CATTEXP
 10
   3.350000
 20
   5.100000
 30
   1.870000
 11
   5.350000
 21
   5.100000
 31
   1.870000
 12
   4.460000
 22
   5.870000
 32
   1.870000
 13
   4.460000
 23
   5.870000
 33
   1.870000
 62
 40
  0
3DFACE
  8
CATTEXP
 10
   3.350000
 20
   5.870000
 30
   1.870000
 11
   3.350000
 21
   5.100000
 31
   1.870000
 12
   4.460000
 22
   5.870000
 32
   1.870000
 13
   4.460000
 23
   5.870000
 33
   1.870000
 62
 40
  0
3DFACE
  8
CATTEXP
 10
   4.460000
 20
   7.350000
 30
   1.870000
 11
   4.460000
 21
   5.870000
 31
   1.870000
 12
   5.350000
 22
   7.350000
 32
   1.870000
 13
   5.350000
 23
   7.350000
 33
   1.870000
 62
 40
  0
ENDSEC
  0
EOF
